<?xml version="1.0" encoding="UTF-8"?>
<svg xmlns="http://www.w3.org/2000/svg" xmlns:xlink="http://www.w3.org/1999/xlink" width="32px" height="32px" viewBox="0 0 32 32" version="1.1">
<defs>
<filter id="alpha" filterUnits="objectBoundingBox" x="0%" y="0%" width="100%" height="100%">
  <feColorMatrix type="matrix" in="SourceGraphic" values="0 0 0 0 1 0 0 0 0 1 0 0 0 0 1 0 0 0 1 0"/>
</filter>
<mask id="mask0">
  <g filter="url(#alpha)">
<rect x="0" y="0" width="32" height="32" style="fill:rgb(0%,0%,0%);fill-opacity:0.996078;stroke:none;"/>
  </g>
</mask>
<clipPath id="clip1">
  <rect x="0" y="0" width="32" height="32"/>
</clipPath>
<g id="surface5" clip-path="url(#clip1)">
<path style=" stroke:none;fill-rule:evenodd;fill:rgb(74.117647%,76.470588%,78.039216%);fill-opacity:1;" d="M 3.96875 25.59375 C 4.199219 26.792969 4.910156 27.574219 6.09375 27.9375 C 9.34375 27.949219 12.59375 27.957031 15.84375 27.96875 C 19.21875 27.976562 22.59375 27.945312 25.96875 27.875 C 27.097656 27.507812 27.761719 26.75 27.96875 25.59375 C 27.980469 26.136719 27.96875 26.675781 27.9375 27.21875 C 27.683594 28.285156 27.027344 28.960938 25.96875 29.25 C 22.636719 29.320312 19.304688 29.351562 15.96875 29.34375 C 12.632812 29.351562 9.300781 29.320312 5.96875 29.25 C 4.910156 28.960938 4.253906 28.285156 4 27.21875 C 3.96875 26.675781 3.957031 26.136719 3.96875 25.59375 Z M 3.96875 25.59375 "/>
</g>
</defs>
<g id="surface1">
<path style=" stroke:none;fill-rule:evenodd;fill:rgb(73.72549%,76.078431%,77.647059%);fill-opacity:1;" d="M 9.34375 3.96875 C 9.28125 4.394531 9.261719 4.832031 9.28125 5.28125 C 8.40625 5.28125 7.53125 5.28125 6.65625 5.28125 C 6.675781 4.832031 6.65625 4.394531 6.59375 3.96875 C 6.582031 3.449219 6.59375 2.925781 6.625 2.40625 C 6.910156 1.433594 7.546875 1.089844 8.53125 1.375 C 8.980469 1.574219 9.242188 1.917969 9.3125 2.40625 C 9.34375 2.925781 9.355469 3.449219 9.34375 3.96875 Z M 9.34375 3.96875 "/>
<path style=" stroke:none;fill-rule:evenodd;fill:rgb(73.72549%,76.078431%,77.647059%);fill-opacity:1;" d="M 25.34375 3.96875 C 25.28125 4.394531 25.261719 4.832031 25.28125 5.28125 C 24.40625 5.28125 23.53125 5.28125 22.65625 5.28125 C 22.675781 4.832031 22.65625 4.394531 22.59375 3.96875 C 22.582031 3.449219 22.59375 2.925781 22.625 2.40625 C 22.910156 1.433594 23.546875 1.089844 24.53125 1.375 C 24.980469 1.574219 25.242188 1.917969 25.3125 2.40625 C 25.34375 2.925781 25.355469 3.449219 25.34375 3.96875 Z M 25.34375 3.96875 "/>
<path style=" stroke:none;fill-rule:evenodd;fill:rgb(90.196078%,29.803922%,23.529412%);fill-opacity:1;" d="M 6.59375 3.96875 C 6.605469 4.613281 6.59375 5.261719 6.5625 5.90625 C 5.710938 6.996094 5.804688 8.007812 6.84375 8.9375 C 7.914062 9.535156 8.84375 9.359375 9.625 8.40625 C 10.152344 7.507812 10.070312 6.671875 9.375 5.90625 C 9.34375 5.261719 9.332031 4.613281 9.34375 3.96875 C 13.761719 3.96875 18.175781 3.96875 22.59375 3.96875 C 22.605469 4.613281 22.59375 5.261719 22.5625 5.90625 C 21.710938 6.996094 21.804688 8.007812 22.84375 8.9375 C 23.914062 9.535156 24.84375 9.359375 25.625 8.40625 C 26.152344 7.507812 26.070312 6.671875 25.375 5.90625 C 25.34375 5.261719 25.332031 4.613281 25.34375 3.96875 C 26.59375 4 27.4375 4.605469 27.875 5.78125 C 27.96875 7.839844 28 9.902344 27.96875 11.96875 C 19.96875 11.96875 11.96875 11.96875 3.96875 11.96875 C 3.9375 9.902344 3.96875 7.839844 4.0625 5.78125 C 4.5 4.605469 5.34375 4 6.59375 3.96875 Z M 6.59375 3.96875 "/>
<path style=" stroke:none;fill-rule:evenodd;fill:rgb(75.294118%,23.529412%,18.039216%);fill-opacity:1;" d="M 6.59375 3.96875 C 6.65625 4.394531 6.675781 4.832031 6.65625 5.28125 C 6.628906 5.910156 6.660156 6.535156 6.75 7.15625 C 7.21875 7.972656 7.875 8.167969 8.71875 7.75 C 8.921875 7.589844 9.078125 7.390625 9.1875 7.15625 C 9.277344 6.535156 9.308594 5.910156 9.28125 5.28125 C 9.261719 4.832031 9.28125 4.394531 9.34375 3.96875 C 9.332031 4.613281 9.34375 5.261719 9.375 5.90625 C 10.070312 6.671875 10.152344 7.507812 9.625 8.40625 C 8.84375 9.359375 7.914062 9.535156 6.84375 8.9375 C 5.804688 8.007812 5.710938 6.996094 6.5625 5.90625 C 6.59375 5.261719 6.605469 4.613281 6.59375 3.96875 Z M 6.59375 3.96875 "/>
<path style=" stroke:none;fill-rule:evenodd;fill:rgb(58.431373%,64.313725%,64.705882%);fill-opacity:1;" d="M 6.65625 5.28125 C 7.53125 5.28125 8.40625 5.28125 9.28125 5.28125 C 9.308594 5.910156 9.277344 6.535156 9.1875 7.15625 C 9.078125 7.390625 8.921875 7.589844 8.71875 7.75 C 7.875 8.167969 7.21875 7.972656 6.75 7.15625 C 6.660156 6.535156 6.628906 5.910156 6.65625 5.28125 Z M 6.65625 5.28125 "/>
<path style=" stroke:none;fill-rule:evenodd;fill:rgb(75.294118%,23.529412%,18.039216%);fill-opacity:1;" d="M 22.59375 3.96875 C 22.65625 4.394531 22.675781 4.832031 22.65625 5.28125 C 22.628906 5.910156 22.660156 6.535156 22.75 7.15625 C 23.21875 7.972656 23.875 8.167969 24.71875 7.75 C 24.921875 7.589844 25.078125 7.390625 25.1875 7.15625 C 25.277344 6.535156 25.308594 5.910156 25.28125 5.28125 C 25.261719 4.832031 25.28125 4.394531 25.34375 3.96875 C 25.332031 4.613281 25.34375 5.261719 25.375 5.90625 C 26.070312 6.671875 26.152344 7.507812 25.625 8.40625 C 24.84375 9.359375 23.914062 9.535156 22.84375 8.9375 C 21.804688 8.007812 21.710938 6.996094 22.5625 5.90625 C 22.59375 5.261719 22.605469 4.613281 22.59375 3.96875 Z M 22.59375 3.96875 "/>
<path style=" stroke:none;fill-rule:evenodd;fill:rgb(58.431373%,64.313725%,64.705882%);fill-opacity:1;" d="M 22.65625 5.28125 C 23.53125 5.28125 24.40625 5.28125 25.28125 5.28125 C 25.308594 5.910156 25.277344 6.535156 25.1875 7.15625 C 25.078125 7.390625 24.921875 7.589844 24.71875 7.75 C 23.875 8.167969 23.21875 7.972656 22.75 7.15625 C 22.660156 6.535156 22.628906 5.910156 22.65625 5.28125 Z M 22.65625 5.28125 "/>
<path style=" stroke:none;fill-rule:evenodd;fill:rgb(92.156863%,93.72549%,94.117647%);fill-opacity:1;" d="M 3.96875 11.96875 C 11.96875 11.96875 19.96875 11.96875 27.96875 11.96875 C 27.96875 16.511719 27.96875 21.050781 27.96875 25.59375 C 27.761719 26.75 27.097656 27.507812 25.96875 27.875 C 22.59375 27.945312 19.21875 27.976562 15.84375 27.96875 C 12.59375 27.957031 9.34375 27.949219 6.09375 27.9375 C 4.910156 27.574219 4.199219 26.792969 3.96875 25.59375 C 3.96875 21.050781 3.96875 16.511719 3.96875 11.96875 Z M 3.96875 11.96875 "/>
<path style=" stroke:none;fill-rule:evenodd;fill:rgb(73.72549%,76.470588%,77.647059%);fill-opacity:1;" d="M 6.65625 14.65625 C 7.53125 14.65625 8.40625 14.65625 9.28125 14.65625 C 9.28125 15.53125 9.28125 16.40625 9.28125 17.28125 C 8.40625 17.28125 7.53125 17.28125 6.65625 17.28125 C 6.65625 16.40625 6.65625 15.53125 6.65625 14.65625 Z M 6.65625 14.65625 "/>
<path style=" stroke:none;fill-rule:evenodd;fill:rgb(73.72549%,76.470588%,77.647059%);fill-opacity:1;" d="M 10.65625 14.65625 C 11.53125 14.65625 12.40625 14.65625 13.28125 14.65625 C 13.28125 15.53125 13.28125 16.40625 13.28125 17.28125 C 12.40625 17.28125 11.53125 17.28125 10.65625 17.28125 C 10.65625 16.40625 10.65625 15.53125 10.65625 14.65625 Z M 10.65625 14.65625 "/>
<path style=" stroke:none;fill-rule:evenodd;fill:rgb(73.72549%,76.470588%,77.647059%);fill-opacity:1;" d="M 14.65625 14.65625 C 15.53125 14.65625 16.40625 14.65625 17.28125 14.65625 C 17.28125 15.53125 17.28125 16.40625 17.28125 17.28125 C 16.40625 17.28125 15.53125 17.28125 14.65625 17.28125 C 14.65625 16.40625 14.65625 15.53125 14.65625 14.65625 Z M 14.65625 14.65625 "/>
<path style=" stroke:none;fill-rule:evenodd;fill:rgb(73.72549%,76.470588%,77.647059%);fill-opacity:1;" d="M 18.65625 14.65625 C 19.53125 14.65625 20.40625 14.65625 21.28125 14.65625 C 21.28125 15.53125 21.28125 16.40625 21.28125 17.28125 C 20.40625 17.28125 19.53125 17.28125 18.65625 17.28125 C 18.65625 16.40625 18.65625 15.53125 18.65625 14.65625 Z M 18.65625 14.65625 "/>
<path style=" stroke:none;fill-rule:evenodd;fill:rgb(73.72549%,76.470588%,77.647059%);fill-opacity:1;" d="M 22.65625 14.65625 C 23.53125 14.65625 24.40625 14.65625 25.28125 14.65625 C 25.28125 15.53125 25.28125 16.40625 25.28125 17.28125 C 24.40625 17.28125 23.53125 17.28125 22.65625 17.28125 C 22.65625 16.40625 22.65625 15.53125 22.65625 14.65625 Z M 22.65625 14.65625 "/>
<path style=" stroke:none;fill-rule:evenodd;fill:rgb(73.72549%,76.470588%,77.647059%);fill-opacity:1;" d="M 6.65625 18.65625 C 7.53125 18.65625 8.40625 18.65625 9.28125 18.65625 C 9.28125 19.53125 9.28125 20.40625 9.28125 21.28125 C 8.40625 21.28125 7.53125 21.28125 6.65625 21.28125 C 6.65625 20.40625 6.65625 19.53125 6.65625 18.65625 Z M 6.65625 18.65625 "/>
<path style=" stroke:none;fill-rule:evenodd;fill:rgb(73.72549%,76.470588%,77.647059%);fill-opacity:1;" d="M 10.65625 18.65625 C 11.53125 18.65625 12.40625 18.65625 13.28125 18.65625 C 13.28125 19.53125 13.28125 20.40625 13.28125 21.28125 C 12.40625 21.28125 11.53125 21.28125 10.65625 21.28125 C 10.65625 20.40625 10.65625 19.53125 10.65625 18.65625 Z M 10.65625 18.65625 "/>
<path style=" stroke:none;fill-rule:evenodd;fill:rgb(73.72549%,76.470588%,77.647059%);fill-opacity:1;" d="M 14.65625 18.65625 C 15.53125 18.65625 16.40625 18.65625 17.28125 18.65625 C 17.28125 19.53125 17.28125 20.40625 17.28125 21.28125 C 16.40625 21.28125 15.53125 21.28125 14.65625 21.28125 C 14.65625 20.40625 14.65625 19.53125 14.65625 18.65625 Z M 14.65625 18.65625 "/>
<path style=" stroke:none;fill-rule:evenodd;fill:rgb(73.72549%,76.470588%,77.647059%);fill-opacity:1;" d="M 18.65625 18.65625 C 19.53125 18.65625 20.40625 18.65625 21.28125 18.65625 C 21.28125 19.53125 21.28125 20.40625 21.28125 21.28125 C 20.40625 21.28125 19.53125 21.28125 18.65625 21.28125 C 18.65625 20.40625 18.65625 19.53125 18.65625 18.65625 Z M 18.65625 18.65625 "/>
<path style=" stroke:none;fill-rule:evenodd;fill:rgb(73.72549%,76.470588%,77.647059%);fill-opacity:1;" d="M 22.65625 18.65625 C 23.53125 18.65625 24.40625 18.65625 25.28125 18.65625 C 25.28125 19.53125 25.28125 20.40625 25.28125 21.28125 C 24.40625 21.28125 23.53125 21.28125 22.65625 21.28125 C 22.65625 20.40625 22.65625 19.53125 22.65625 18.65625 Z M 22.65625 18.65625 "/>
<path style=" stroke:none;fill-rule:evenodd;fill:rgb(73.72549%,76.470588%,77.647059%);fill-opacity:1;" d="M 6.65625 22.65625 C 7.53125 22.65625 8.40625 22.65625 9.28125 22.65625 C 9.28125 23.53125 9.28125 24.40625 9.28125 25.28125 C 8.40625 25.28125 7.53125 25.28125 6.65625 25.28125 C 6.65625 24.40625 6.65625 23.53125 6.65625 22.65625 Z M 6.65625 22.65625 "/>
<path style=" stroke:none;fill-rule:evenodd;fill:rgb(73.72549%,76.470588%,77.647059%);fill-opacity:1;" d="M 10.65625 22.65625 C 11.53125 22.65625 12.40625 22.65625 13.28125 22.65625 C 13.28125 23.53125 13.28125 24.40625 13.28125 25.28125 C 12.40625 25.28125 11.53125 25.28125 10.65625 25.28125 C 10.65625 24.40625 10.65625 23.53125 10.65625 22.65625 Z M 10.65625 22.65625 "/>
<path style=" stroke:none;fill-rule:evenodd;fill:rgb(73.72549%,76.470588%,77.647059%);fill-opacity:1;" d="M 14.65625 22.65625 C 15.53125 22.65625 16.40625 22.65625 17.28125 22.65625 C 17.28125 23.53125 17.28125 24.40625 17.28125 25.28125 C 16.40625 25.28125 15.53125 25.28125 14.65625 25.28125 C 14.65625 24.40625 14.65625 23.53125 14.65625 22.65625 Z M 14.65625 22.65625 "/>
<path style=" stroke:none;fill-rule:evenodd;fill:rgb(73.72549%,76.470588%,77.647059%);fill-opacity:1;" d="M 18.65625 22.65625 C 19.53125 22.65625 20.40625 22.65625 21.28125 22.65625 C 21.28125 23.53125 21.28125 24.40625 21.28125 25.28125 C 20.40625 25.28125 19.53125 25.28125 18.65625 25.28125 C 18.65625 24.40625 18.65625 23.53125 18.65625 22.65625 Z M 18.65625 22.65625 "/>
<path style=" stroke:none;fill-rule:evenodd;fill:rgb(73.72549%,76.470588%,77.647059%);fill-opacity:1;" d="M 22.65625 22.65625 C 23.53125 22.65625 24.40625 22.65625 25.28125 22.65625 C 25.28125 23.53125 25.28125 24.40625 25.28125 25.28125 C 24.40625 25.28125 23.53125 25.28125 22.65625 25.28125 C 22.65625 24.40625 22.65625 23.53125 22.65625 22.65625 Z M 22.65625 22.65625 "/>
<use xlink:href="#surface5" mask="url(#mask0)"/>
</g>
</svg>
