<?xml version="1.0" encoding="UTF-8"?>
<svg xmlns="http://www.w3.org/2000/svg" xmlns:xlink="http://www.w3.org/1999/xlink" width="50px" height="54px" viewBox="0 0 50 54" version="1.1">
<g id="surface1">
<path style=" stroke:none;fill-rule:nonzero;fill:rgb(27.843137%,78.431373%,90.980392%);fill-opacity:1;" d="M 22.683594 53.652344 C 20.523438 53.074219 18.945312 51.617188 17.226562 48.617188 C 16.382812 47.144531 15.796875 46.320312 15.058594 45.554688 L 14.046875 44.511719 L 10.472656 44.507812 C 6.914062 44.503906 6.273438 44.445312 4.835938 43.980469 C 3.066406 43.40625 1.199219 41.480469 0.496094 39.5 C 0.0390625 38.214844 0.0117188 36.246094 0.429688 35.007812 C 0.671875 34.304688 2.429688 31.136719 4.226562 28.179688 C 4.460938 27.796875 4.648438 27.417969 4.648438 27.339844 C 4.648438 27.257812 3.757812 25.667969 2.667969 23.800781 C 1.578125 21.933594 0.5625 20.015625 0.414062 19.542969 C 0.0351562 18.339844 0.0507812 16.386719 0.441406 15.226562 C 1.210938 12.96875 3.082031 11.140625 5.375 10.410156 C 6.042969 10.199219 6.886719 10.148438 10.535156 10.097656 L 14.894531 10.035156 L 16.328125 7.5625 C 18.925781 3.085938 19.582031 2.296875 21.433594 1.421875 C 24.3125 0.0664062 27.808594 0.625 29.980469 2.792969 C 30.714844 3.527344 31.203125 4.269531 33.480469 8.140625 L 34.597656 10.035156 L 38.988281 10.089844 C 43.085938 10.144531 43.4375 10.167969 44.296875 10.46875 C 45.480469 10.886719 46.234375 11.363281 47.164062 12.289062 C 48.617188 13.730469 49.304688 15.375 49.296875 17.414062 C 49.292969 19.183594 48.984375 19.953125 46.816406 23.636719 C 45.769531 25.417969 44.871094 26.980469 44.824219 27.105469 C 44.769531 27.246094 45.125 27.992188 45.746094 29.039062 C 48.042969 32.910156 48.847656 34.390625 49.074219 35.140625 C 49.429688 36.320312 49.394531 38.160156 48.992188 39.347656 C 48.355469 41.222656 46.726562 43.035156 45 43.792969 C 43.683594 44.371094 42.554688 44.503906 39.007812 44.507812 L 35.65625 44.511719 L 34.210938 45.996094 C 33.0625 47.179688 32.578125 47.816406 31.832031 49.128906 C 30.332031 51.769531 28.625 53.226562 26.445312 53.722656 C 25.523438 53.933594 23.605469 53.898438 22.683594 53.652344 Z M 18.949219 30.960938 C 19.578125 30.050781 20.140625 29.253906 20.191406 29.195312 C 20.242188 29.136719 20.59375 29.28125 20.972656 29.519531 L 21.660156 29.953125 L 28.03125 29.953125 L 29.492188 29.101562 L 30.730469 30.929688 L 31.96875 32.761719 L 31.976562 45.449219 L 32.335938 44.871094 C 32.601562 44.441406 32.695312 44.089844 32.695312 43.5 L 32.695312 42.707031 L 33.550781 42.023438 C 34.109375 41.578125 34.617188 40.988281 35.003906 40.339844 C 35.332031 39.792969 35.601562 39.300781 35.601562 39.246094 C 35.601562 39.132812 34.871094 39.746094 33.761719 40.78125 C 33.347656 41.167969 32.941406 41.484375 32.851562 41.484375 C 32.742188 41.484375 32.695312 40.070312 32.695312 36.804688 L 32.695312 32.125 L 31.664062 30.671875 C 31.09375 29.871094 30.652344 29.191406 30.679688 29.164062 C 30.710938 29.136719 31.34375 29.25 32.085938 29.414062 L 33.4375 29.714844 L 35.136719 28.054688 L 36.835938 26.390625 L 38.496094 25.792969 C 39.410156 25.464844 40.175781 25.21875 40.203125 25.246094 C 40.234375 25.273438 40.183594 26.59375 40.09375 28.179688 C 40.007812 29.761719 39.957031 31.21875 39.984375 31.40625 C 40.023438 31.675781 40.324219 31.261719 41.34375 29.527344 C 42.0625 28.304688 42.648438 27.273438 42.640625 27.242188 C 42.621094 27.0625 40.890625 24.191406 40.800781 24.1875 C 40.746094 24.1875 37.769531 25.257812 34.191406 26.566406 C 27.855469 28.882812 27.660156 28.945312 26.558594 28.945312 L 25.429688 28.945312 L 25.429688 11.792969 L 24.265625 11.792969 L 24.265625 28.945312 L 23.304688 28.945312 C 22.46875 28.945312 21.96875 28.808594 19.5625 27.925781 C 18.128906 27.402344 16.691406 26.878906 15.257812 26.355469 C 10.425781 24.601562 9.152344 24.101562 9.152344 23.945312 C 9.152344 23.847656 9.101562 23.738281 9.035156 23.699219 C 8.882812 23.605469 6.789062 27.148438 6.855469 27.390625 C 6.921875 27.65625 9.796875 32.535156 9.851562 32.480469 C 9.875 32.453125 9.796875 30.824219 9.675781 28.859375 C 9.554688 26.894531 9.476562 25.261719 9.503906 25.234375 C 9.53125 25.207031 10.003906 25.355469 10.550781 25.5625 C 11.101562 25.769531 11.847656 26.035156 12.207031 26.15625 C 12.707031 26.324219 13.253906 26.761719 14.554688 28.042969 L 16.253906 29.710938 L 17.460938 29.453125 C 18.128906 29.308594 18.753906 29.164062 18.855469 29.125 C 19.203125 28.992188 19.027344 29.335938 18.019531 30.746094 L 17 32.167969 L 17 36.824219 C 17 39.644531 16.945312 41.484375 16.863281 41.484375 C 16.789062 41.484375 15.972656 40.800781 15.046875 39.960938 C 14.125 39.125 13.367188 38.472656 13.367188 38.507812 C 13.367188 38.546875 13.621094 39.019531 13.929688 39.5625 C 14.339844 40.285156 14.820312 40.832031 15.738281 41.628906 L 16.984375 42.707031 L 16.992188 43.71875 C 17 44.476562 17.082031 44.878906 17.328125 45.339844 L 17.65625 45.953125 L 17.726562 39.285156 L 17.800781 32.621094 Z M 12.789062 41.925781 C 12.789062 41.089844 12.742188 40.988281 10.953125 37.925781 C 9.945312 36.195312 9.039062 34.683594 8.941406 34.566406 C 8.84375 34.445312 8.71875 34.226562 8.664062 34.074219 C 8.609375 33.925781 8.152344 33.113281 7.648438 32.273438 C 7.140625 31.433594 6.519531 30.371094 6.257812 29.917969 C 6 29.460938 5.769531 29.089844 5.742188 29.089844 C 5.691406 29.089844 4.238281 31.5625 2.949219 33.84375 C 1.984375 35.546875 1.839844 36.066406 1.917969 37.535156 C 1.964844 38.441406 2.070312 38.890625 2.390625 39.535156 C 3.171875 41.121094 4.800781 42.347656 6.507812 42.632812 C 6.882812 42.695312 8.453125 42.753906 9.988281 42.765625 L 12.789062 42.78125 Z M 42.875 42.636719 C 43.996094 42.425781 45.050781 41.898438 45.796875 41.179688 C 46.996094 40.019531 47.554688 38.707031 47.546875 37.070312 C 47.539062 35.554688 47.527344 35.535156 44.46875 30.285156 L 43.699219 28.960938 L 42.253906 31.425781 C 41.457031 32.78125 40.769531 33.992188 40.726562 34.121094 C 40.679688 34.246094 40.5625 34.445312 40.460938 34.566406 C 40.296875 34.757812 39.558594 35.988281 37.539062 39.460938 C 36.945312 40.480469 36.910156 40.601562 36.910156 41.660156 L 36.910156 42.78125 L 39.507812 42.78125 C 40.933594 42.78125 42.449219 42.714844 42.875 42.636719 Z M 7.21875 23.066406 L 8.429688 21.007812 L 7.921875 19 C 7.640625 17.898438 7.410156 16.886719 7.410156 16.753906 C 7.410156 16.539062 7.578125 16.527344 9.046875 16.621094 C 9.945312 16.675781 10.734375 16.730469 10.796875 16.742188 C 10.898438 16.761719 11.808594 15.292969 13.394531 12.539062 L 13.839844 11.765625 L 10.152344 11.832031 C 6.074219 11.902344 5.515625 12 4.320312 12.84375 C 1.773438 14.640625 1.148438 17.917969 2.835938 20.636719 C 3.074219 21.023438 3.367188 21.515625 3.488281 21.734375 C 3.605469 21.949219 4.160156 22.914062 4.71875 23.871094 C 5.539062 25.285156 5.761719 25.570312 5.867188 25.371094 C 5.945312 25.234375 6.550781 24.199219 7.21875 23.066406 Z M 45.421875 22.601562 C 46.285156 21.136719 47.113281 19.617188 47.261719 19.226562 C 47.546875 18.484375 47.636719 16.980469 47.445312 16.105469 C 47.144531 14.738281 45.859375 13.140625 44.511719 12.460938 C 43.425781 11.917969 42.164062 11.777344 38.71875 11.824219 L 35.65625 11.863281 L 37.019531 14.167969 C 37.765625 15.4375 38.421875 16.550781 38.480469 16.640625 C 38.554688 16.765625 39.09375 16.769531 40.585938 16.660156 C 41.6875 16.578125 42.617188 16.539062 42.648438 16.570312 C 42.679688 16.601562 42.449219 17.648438 42.132812 18.894531 C 41.816406 20.140625 41.546875 21.304688 41.53125 21.484375 C 41.5 21.855469 43.605469 25.535156 43.753906 25.375 C 43.808594 25.316406 44.558594 24.066406 45.421875 22.601562 Z M 18.382812 17.125 C 18.339844 17.058594 18.371094 16.984375 18.449219 16.957031 C 18.523438 16.929688 19.078125 15.773438 19.675781 14.386719 C 20.6875 12.039062 20.742188 11.859375 20.464844 11.816406 C 20.296875 11.789062 20.109375 11.820312 20.042969 11.890625 C 19.972656 11.957031 19.460938 13.050781 18.902344 14.316406 C 18.003906 16.351562 17.84375 16.617188 17.550781 16.605469 C 17.367188 16.597656 16.34375 16.503906 15.277344 16.402344 L 13.332031 16.214844 L 13.066406 16.5625 L 12.800781 16.90625 L 15.519531 17.128906 C 18.242188 17.355469 18.523438 17.351562 18.382812 17.125 Z M 36.144531 16.988281 C 36.589844 16.980469 36.605469 16.964844 36.449219 16.621094 C 36.355469 16.421875 36.167969 16.261719 36.03125 16.261719 C 35.664062 16.261719 32.84375 16.535156 32.316406 16.625 C 31.882812 16.695312 31.847656 16.660156 31.539062 15.9375 C 31.359375 15.519531 31.105469 15.015625 30.976562 14.820312 C 30.84375 14.621094 30.726562 14.359375 30.714844 14.242188 C 30.707031 14.121094 30.464844 13.523438 30.179688 12.910156 C 29.734375 11.945312 29.609375 11.792969 29.292969 11.792969 L 28.929688 11.792969 L 29.445312 12.980469 L 30.609375 15.675781 C 30.96875 16.507812 31.285156 17.222656 31.316406 17.269531 C 31.34375 17.316406 32.335938 17.273438 33.519531 17.175781 C 34.707031 17.078125 35.886719 16.992188 36.144531 16.988281 Z M 32.179688 9.378906 C 30.300781 6.144531 29.285156 4.566406 28.757812 4.039062 C 27.839844 3.128906 26.582031 2.566406 25.242188 2.464844 C 22.808594 2.28125 20.789062 3.363281 19.546875 5.523438 C 19.035156 6.402344 18.519531 7.277344 18.003906 8.152344 L 16.875 10.0625 L 32.578125 10.0625 Z M 32.179688 9.378906 "/>
<path style=" stroke:none;fill-rule:nonzero;fill:rgb(21.176471%,77.647059%,90.588235%);fill-opacity:1;" d="M 22.683594 53.652344 C 20.523438 53.074219 18.945312 51.617188 17.226562 48.617188 C 16.382812 47.144531 15.796875 46.320312 15.058594 45.554688 L 14.046875 44.511719 L 10.515625 44.511719 C 5.96875 44.511719 4.96875 44.316406 3.21875 43.101562 C 2.339844 42.488281 1.15625 41.113281 0.832031 40.332031 C 0.710938 40.039062 0.585938 39.753906 0.457031 39.464844 C 0.3125 39.148438 0.207031 38.398438 0.171875 37.449219 C 0.125 36.195312 0.167969 35.78125 0.417969 35.050781 C 0.667969 34.3125 2.402344 31.183594 4.226562 28.175781 C 4.460938 27.796875 4.648438 27.417969 4.648438 27.339844 C 4.648438 27.257812 3.757812 25.667969 2.667969 23.800781 C 1.578125 21.929688 0.5625 20.015625 0.414062 19.542969 C 0.0351562 18.339844 0.0507812 16.386719 0.441406 15.226562 C 1.210938 12.96875 3.082031 11.140625 5.375 10.410156 C 6.042969 10.199219 6.886719 10.148438 10.535156 10.097656 L 14.894531 10.035156 L 16.328125 7.5625 C 18.925781 3.085938 19.582031 2.296875 21.433594 1.421875 C 24.277344 0.0820312 27.761719 0.617188 29.925781 2.730469 C 30.550781 3.339844 31.792969 5.144531 32.417969 6.347656 C 32.53125 6.566406 33.066406 7.484375 33.609375 8.390625 L 34.59375 10.035156 L 38.984375 10.089844 C 43.085938 10.144531 43.4375 10.167969 44.296875 10.46875 C 45.480469 10.886719 46.234375 11.363281 47.164062 12.289062 C 49.585938 14.6875 50 18.191406 48.222656 21.226562 C 47.574219 22.335938 46.925781 23.441406 46.273438 24.546875 C 45.863281 25.242188 45.460938 25.941406 45.070312 26.640625 L 44.710938 27.296875 L 45.734375 29.019531 C 48.039062 32.90625 48.847656 34.390625 49.078125 35.140625 C 49.421875 36.289062 49.378906 38.285156 48.984375 39.394531 C 48.335938 41.210938 46.753906 42.980469 45.097656 43.742188 C 43.742188 44.363281 42.628906 44.503906 39.007812 44.507812 L 35.65625 44.511719 L 34.210938 45.996094 C 33.066406 47.175781 32.574219 47.816406 31.828125 49.128906 C 30.328125 51.769531 28.617188 53.226562 26.441406 53.722656 C 25.523438 53.933594 23.605469 53.898438 22.683594 53.652344 Z M 18.949219 30.960938 C 19.578125 30.050781 20.140625 29.253906 20.191406 29.195312 C 20.242188 29.136719 20.59375 29.28125 20.972656 29.519531 L 21.660156 29.953125 L 28.03125 29.953125 L 29.492188 29.101562 L 30.730469 30.929688 L 31.96875 32.761719 L 31.976562 45.449219 L 32.335938 44.871094 C 32.601562 44.441406 32.695312 44.089844 32.695312 43.5 L 32.695312 42.707031 L 33.550781 42.023438 C 34.109375 41.578125 34.617188 40.988281 35.003906 40.339844 C 35.332031 39.792969 35.601562 39.300781 35.601562 39.246094 C 35.601562 39.132812 34.871094 39.746094 33.761719 40.78125 C 33.347656 41.167969 32.941406 41.484375 32.851562 41.484375 C 32.742188 41.484375 32.695312 40.070312 32.695312 36.804688 L 32.695312 32.125 L 31.664062 30.671875 C 31.09375 29.871094 30.652344 29.191406 30.679688 29.164062 C 30.710938 29.136719 31.34375 29.25 32.085938 29.414062 L 33.4375 29.714844 L 35.136719 28.054688 L 36.835938 26.390625 L 38.496094 25.792969 C 39.410156 25.464844 40.175781 25.21875 40.203125 25.246094 C 40.234375 25.273438 40.183594 26.59375 40.09375 28.179688 C 40.007812 29.761719 39.957031 31.21875 39.984375 31.40625 C 40.023438 31.675781 40.324219 31.261719 41.34375 29.527344 C 42.0625 28.304688 42.648438 27.273438 42.640625 27.242188 C 42.621094 27.0625 40.890625 24.191406 40.800781 24.1875 C 40.746094 24.1875 37.769531 25.257812 34.191406 26.566406 C 27.855469 28.882812 27.660156 28.945312 26.558594 28.945312 L 25.429688 28.945312 L 25.429688 11.792969 L 24.265625 11.792969 L 24.265625 28.945312 L 23.304688 28.945312 C 22.46875 28.945312 21.96875 28.808594 19.5625 27.925781 C 18.128906 27.402344 16.691406 26.878906 15.257812 26.355469 C 10.425781 24.601562 9.152344 24.101562 9.152344 23.945312 C 9.152344 23.847656 9.101562 23.738281 9.035156 23.699219 C 8.882812 23.605469 6.789062 27.148438 6.855469 27.390625 C 6.921875 27.65625 9.796875 32.535156 9.851562 32.480469 C 9.875 32.453125 9.796875 30.824219 9.675781 28.859375 C 9.554688 26.894531 9.476562 25.261719 9.503906 25.234375 C 9.53125 25.207031 10.003906 25.355469 10.550781 25.5625 C 11.101562 25.769531 11.847656 26.035156 12.207031 26.15625 C 12.707031 26.324219 13.253906 26.761719 14.554688 28.042969 L 16.253906 29.710938 L 17.460938 29.453125 C 18.128906 29.308594 18.753906 29.164062 18.855469 29.125 C 19.203125 28.992188 19.027344 29.335938 18.019531 30.746094 L 17 32.167969 L 17 36.824219 C 17 39.644531 16.945312 41.484375 16.863281 41.484375 C 16.789062 41.484375 15.972656 40.800781 15.046875 39.960938 C 14.125 39.125 13.367188 38.472656 13.367188 38.507812 C 13.367188 38.546875 13.621094 39.019531 13.929688 39.5625 C 14.339844 40.285156 14.820312 40.832031 15.738281 41.628906 L 16.984375 42.707031 L 16.992188 43.71875 C 17 44.476562 17.082031 44.878906 17.328125 45.339844 L 17.65625 45.953125 L 17.726562 39.285156 L 17.800781 32.621094 Z M 12.789062 41.925781 C 12.789062 41.089844 12.742188 40.988281 10.953125 37.925781 C 9.945312 36.195312 9.039062 34.683594 8.941406 34.566406 C 8.84375 34.445312 8.71875 34.226562 8.664062 34.074219 C 8.609375 33.925781 8.152344 33.113281 7.648438 32.273438 C 7.140625 31.433594 6.519531 30.371094 6.257812 29.917969 C 6 29.460938 5.769531 29.089844 5.742188 29.089844 C 5.691406 29.089844 4.238281 31.5625 2.949219 33.84375 C 1.984375 35.546875 1.839844 36.066406 1.917969 37.535156 C 1.964844 38.441406 2.070312 38.890625 2.390625 39.535156 C 3.171875 41.121094 4.800781 42.347656 6.507812 42.632812 C 6.882812 42.695312 8.453125 42.753906 9.988281 42.765625 L 12.789062 42.78125 Z M 42.875 42.636719 C 43.996094 42.425781 45.050781 41.898438 45.796875 41.179688 C 46.996094 40.019531 47.554688 38.707031 47.546875 37.070312 C 47.539062 35.554688 47.527344 35.535156 44.46875 30.285156 L 43.699219 28.960938 L 42.253906 31.425781 C 41.457031 32.78125 40.769531 33.992188 40.726562 34.121094 C 40.679688 34.246094 40.5625 34.445312 40.460938 34.566406 C 40.296875 34.757812 39.558594 35.988281 37.539062 39.460938 C 36.945312 40.480469 36.910156 40.601562 36.910156 41.660156 L 36.910156 42.78125 L 39.507812 42.78125 C 40.933594 42.78125 42.449219 42.714844 42.875 42.636719 Z M 7.21875 23.066406 L 8.429688 21.007812 L 7.921875 19 C 7.640625 17.898438 7.410156 16.886719 7.410156 16.753906 C 7.410156 16.539062 7.578125 16.527344 9.046875 16.621094 C 9.945312 16.675781 10.734375 16.730469 10.796875 16.742188 C 10.898438 16.761719 11.808594 15.292969 13.394531 12.539062 L 13.839844 11.765625 L 10.152344 11.832031 C 6.074219 11.902344 5.515625 12 4.320312 12.84375 C 1.769531 14.640625 1.148438 17.90625 2.835938 20.644531 C 3.351562 21.476562 3.84375 22.328125 4.308594 23.191406 C 4.609375 23.734375 4.917969 24.269531 5.242188 24.796875 C 5.648438 25.453125 5.761719 25.554688 5.871094 25.363281 C 5.945312 25.230469 6.550781 24.199219 7.21875 23.066406 Z M 45.421875 22.601562 C 46.285156 21.136719 47.113281 19.617188 47.261719 19.226562 C 47.546875 18.484375 47.636719 16.980469 47.445312 16.105469 C 47.144531 14.738281 45.859375 13.140625 44.511719 12.460938 C 43.425781 11.917969 42.164062 11.777344 38.71875 11.824219 L 35.65625 11.863281 L 37.019531 14.167969 C 37.765625 15.4375 38.421875 16.550781 38.480469 16.640625 C 38.554688 16.765625 39.09375 16.769531 40.585938 16.660156 C 41.6875 16.578125 42.617188 16.539062 42.648438 16.570312 C 42.679688 16.601562 42.449219 17.648438 42.132812 18.894531 C 41.816406 20.140625 41.546875 21.304688 41.53125 21.484375 C 41.5 21.855469 43.605469 25.535156 43.753906 25.375 C 43.808594 25.316406 44.558594 24.066406 45.421875 22.601562 Z M 18.382812 17.125 C 18.339844 17.058594 18.371094 16.984375 18.449219 16.957031 C 18.523438 16.929688 19.078125 15.773438 19.675781 14.386719 C 20.6875 12.039062 20.742188 11.859375 20.464844 11.816406 C 20.296875 11.789062 20.109375 11.820312 20.042969 11.890625 C 19.972656 11.957031 19.460938 13.050781 18.902344 14.316406 C 18.003906 16.351562 17.84375 16.617188 17.550781 16.605469 C 17.367188 16.597656 16.34375 16.503906 15.277344 16.402344 L 13.332031 16.214844 L 13.066406 16.5625 L 12.800781 16.90625 L 15.519531 17.128906 C 18.242188 17.355469 18.523438 17.351562 18.382812 17.125 Z M 36.144531 16.988281 C 36.589844 16.980469 36.605469 16.964844 36.449219 16.621094 C 36.355469 16.421875 36.167969 16.261719 36.03125 16.261719 C 35.664062 16.261719 32.84375 16.535156 32.316406 16.625 C 31.882812 16.695312 31.847656 16.660156 31.539062 15.9375 C 31.359375 15.519531 31.105469 15.015625 30.976562 14.820312 C 30.84375 14.621094 30.726562 14.359375 30.714844 14.242188 C 30.707031 14.121094 30.464844 13.523438 30.179688 12.910156 C 29.734375 11.945312 29.609375 11.792969 29.292969 11.792969 L 28.929688 11.792969 L 29.445312 12.980469 L 30.609375 15.675781 C 30.96875 16.507812 31.285156 17.222656 31.316406 17.269531 C 31.34375 17.316406 32.335938 17.273438 33.519531 17.175781 C 34.707031 17.078125 35.886719 16.992188 36.144531 16.988281 Z M 32.179688 9.378906 C 30.300781 6.144531 29.285156 4.566406 28.757812 4.039062 C 27.839844 3.128906 26.582031 2.566406 25.242188 2.464844 C 22.808594 2.28125 20.789062 3.363281 19.546875 5.523438 C 19.035156 6.402344 18.519531 7.277344 18.003906 8.152344 L 16.875 10.0625 L 32.578125 10.0625 Z M 32.179688 9.378906 "/>
<path style=" stroke:none;fill-rule:nonzero;fill:rgb(15.294118%,76.862745%,90.588235%);fill-opacity:1;" d="M 22.683594 53.652344 C 20.503906 53.070312 18.957031 51.632812 17.160156 48.519531 C 16.234375 46.917969 15.703125 46.171875 14.976562 45.457031 L 14.015625 44.507812 L 10.457031 44.5 C 5.875 44.488281 4.960938 44.3125 3.21875 43.101562 C 2.339844 42.488281 1.15625 41.113281 0.832031 40.332031 C 0.710938 40.039062 0.585938 39.753906 0.457031 39.464844 C 0.3125 39.148438 0.207031 38.398438 0.171875 37.449219 C 0.125 36.195312 0.167969 35.78125 0.417969 35.050781 C 0.667969 34.3125 2.402344 31.183594 4.226562 28.175781 C 4.460938 27.796875 4.644531 27.40625 4.640625 27.3125 C 4.628906 27.125 4.5625 27.003906 2.265625 23.097656 C 1.394531 21.613281 0.5625 20.015625 0.414062 19.542969 C 0.0351562 18.339844 0.0507812 16.386719 0.441406 15.226562 C 1.210938 12.96875 3.082031 11.140625 5.375 10.410156 C 6.042969 10.199219 6.886719 10.148438 10.535156 10.097656 L 14.894531 10.035156 L 16.328125 7.5625 C 18.925781 3.089844 19.582031 2.296875 21.433594 1.421875 C 24.066406 0.179688 27.207031 0.527344 29.460938 2.304688 C 30.105469 2.8125 31.164062 4.105469 31.441406 4.730469 C 31.527344 4.925781 31.644531 5.121094 31.695312 5.160156 C 31.75 5.199219 31.976562 5.570312 32.207031 5.980469 C 32.4375 6.394531 33.03125 7.414062 33.53125 8.25 C 34.03125 9.082031 34.441406 9.832031 34.441406 9.914062 C 34.441406 10.011719 35.753906 10.0625 38.328125 10.0625 C 43.902344 10.0625 45.152344 10.363281 47.011719 12.148438 C 48.550781 13.632812 49.289062 15.273438 49.304688 17.269531 C 49.320312 18.753906 48.953125 20.003906 48.097656 21.402344 C 47.699219 22.050781 47.371094 22.652344 47.371094 22.738281 C 47.371094 22.820312 47.316406 22.890625 47.246094 22.890625 C 47.175781 22.890625 47.078125 23.003906 47.03125 23.140625 C 46.984375 23.28125 46.828125 23.589844 46.6875 23.828125 C 46.542969 24.066406 46.039062 24.933594 45.566406 25.757812 C 44.738281 27.199219 44.710938 27.269531 44.921875 27.628906 C 49.0625 34.6875 49.03125 34.628906 49.261719 36.078125 C 49.652344 38.507812 48.664062 41.011719 46.640625 42.730469 C 44.898438 44.207031 43.609375 44.503906 39.058594 44.472656 L 35.753906 44.449219 L 34.398438 45.742188 C 33.648438 46.453125 32.957031 47.195312 32.859375 47.394531 C 32.757812 47.589844 32.273438 48.433594 31.78125 49.265625 C 30.289062 51.78125 28.535156 53.246094 26.445312 53.722656 C 25.523438 53.933594 23.605469 53.898438 22.683594 53.652344 Z M 18.949219 30.960938 C 19.578125 30.050781 20.140625 29.253906 20.191406 29.195312 C 20.242188 29.136719 20.59375 29.28125 20.972656 29.519531 L 21.660156 29.953125 L 28.03125 29.953125 L 29.492188 29.101562 L 30.730469 30.929688 L 31.96875 32.761719 L 31.976562 45.449219 L 32.335938 44.871094 C 32.601562 44.441406 32.695312 44.089844 32.695312 43.5 L 32.695312 42.707031 L 33.550781 42.023438 C 34.109375 41.578125 34.617188 40.988281 35.003906 40.339844 C 35.332031 39.792969 35.601562 39.300781 35.601562 39.246094 C 35.601562 39.132812 34.871094 39.746094 33.761719 40.78125 C 33.347656 41.167969 32.941406 41.484375 32.851562 41.484375 C 32.742188 41.484375 32.695312 40.070312 32.695312 36.804688 L 32.695312 32.125 L 31.664062 30.671875 C 31.09375 29.871094 30.652344 29.191406 30.679688 29.164062 C 30.710938 29.136719 31.34375 29.25 32.085938 29.414062 L 33.4375 29.714844 L 35.136719 28.054688 L 36.835938 26.390625 L 38.496094 25.792969 C 39.410156 25.464844 40.175781 25.21875 40.203125 25.246094 C 40.234375 25.273438 40.183594 26.59375 40.09375 28.179688 C 40.007812 29.761719 39.957031 31.21875 39.984375 31.40625 C 40.023438 31.675781 40.324219 31.261719 41.34375 29.527344 C 42.0625 28.304688 42.648438 27.273438 42.640625 27.242188 C 42.621094 27.0625 40.890625 24.191406 40.800781 24.1875 C 40.746094 24.1875 37.769531 25.257812 34.191406 26.566406 C 27.855469 28.882812 27.660156 28.945312 26.558594 28.945312 L 25.429688 28.945312 L 25.429688 11.792969 L 24.265625 11.792969 L 24.265625 28.945312 L 23.304688 28.945312 C 22.46875 28.945312 21.96875 28.808594 19.5625 27.925781 C 18.128906 27.402344 16.691406 26.878906 15.257812 26.355469 C 10.425781 24.601562 9.152344 24.101562 9.152344 23.945312 C 9.152344 23.847656 9.101562 23.738281 9.035156 23.699219 C 8.882812 23.605469 6.789062 27.148438 6.855469 27.390625 C 6.921875 27.65625 9.796875 32.535156 9.851562 32.480469 C 9.875 32.453125 9.796875 30.824219 9.675781 28.859375 C 9.554688 26.894531 9.476562 25.261719 9.503906 25.234375 C 9.53125 25.207031 10.003906 25.355469 10.550781 25.5625 C 11.101562 25.769531 11.847656 26.035156 12.207031 26.15625 C 12.707031 26.324219 13.253906 26.761719 14.554688 28.042969 L 16.253906 29.710938 L 17.460938 29.453125 C 18.128906 29.308594 18.753906 29.164062 18.855469 29.125 C 19.203125 28.992188 19.027344 29.335938 18.019531 30.746094 L 17 32.167969 L 17 36.824219 C 17 39.644531 16.945312 41.484375 16.863281 41.484375 C 16.789062 41.484375 15.972656 40.800781 15.046875 39.960938 C 14.125 39.125 13.367188 38.472656 13.367188 38.507812 C 13.367188 38.546875 13.621094 39.019531 13.929688 39.5625 C 14.339844 40.285156 14.820312 40.832031 15.738281 41.628906 L 16.984375 42.707031 L 16.992188 43.71875 C 17 44.476562 17.082031 44.878906 17.328125 45.339844 L 17.65625 45.953125 L 17.726562 39.285156 L 17.800781 32.621094 Z M 12.789062 41.925781 C 12.789062 41.089844 12.742188 40.988281 10.953125 37.925781 C 9.945312 36.195312 9.039062 34.683594 8.941406 34.566406 C 8.84375 34.445312 8.71875 34.226562 8.664062 34.074219 C 8.609375 33.925781 8.152344 33.113281 7.648438 32.273438 C 7.140625 31.433594 6.519531 30.371094 6.257812 29.917969 C 6 29.460938 5.769531 29.089844 5.742188 29.089844 C 5.691406 29.089844 4.238281 31.5625 2.949219 33.84375 C 1.984375 35.546875 1.839844 36.066406 1.917969 37.535156 C 1.964844 38.441406 2.070312 38.890625 2.390625 39.535156 C 3.171875 41.121094 4.800781 42.347656 6.507812 42.632812 C 6.882812 42.695312 8.453125 42.753906 9.988281 42.765625 L 12.789062 42.78125 Z M 42.875 42.636719 C 43.996094 42.425781 45.050781 41.898438 45.796875 41.179688 C 46.996094 40.019531 47.554688 38.707031 47.546875 37.070312 C 47.539062 35.554688 47.527344 35.535156 44.46875 30.285156 L 43.699219 28.960938 L 42.253906 31.425781 C 41.457031 32.78125 40.769531 33.992188 40.726562 34.121094 C 40.679688 34.246094 40.5625 34.445312 40.460938 34.566406 C 40.296875 34.757812 39.558594 35.988281 37.539062 39.460938 C 36.945312 40.480469 36.910156 40.601562 36.910156 41.660156 L 36.910156 42.78125 L 39.507812 42.78125 C 40.933594 42.78125 42.449219 42.714844 42.875 42.636719 Z M 7.21875 23.066406 L 8.429688 21.007812 L 7.921875 19 C 7.640625 17.898438 7.410156 16.890625 7.410156 16.761719 C 7.410156 16.550781 7.589844 16.535156 9.046875 16.625 C 9.945312 16.679688 10.734375 16.734375 10.796875 16.746094 C 10.898438 16.761719 11.808594 15.289062 13.394531 12.539062 L 13.839844 11.765625 L 10.152344 11.832031 C 6.074219 11.902344 5.515625 12 4.320312 12.84375 C 1.769531 14.640625 1.148438 17.90625 2.835938 20.644531 C 3.390625 21.542969 3.917969 22.460938 4.414062 23.394531 C 4.667969 23.871094 5.066406 24.558594 5.304688 24.925781 C 5.664062 25.484375 5.761719 25.554688 5.871094 25.359375 C 5.945312 25.230469 6.550781 24.199219 7.21875 23.066406 Z M 45.421875 22.601562 C 46.285156 21.136719 47.113281 19.617188 47.261719 19.226562 C 47.546875 18.484375 47.636719 16.980469 47.445312 16.105469 C 47.144531 14.738281 45.859375 13.140625 44.511719 12.460938 C 43.425781 11.917969 42.164062 11.777344 38.71875 11.824219 L 35.65625 11.863281 L 37.019531 14.167969 C 37.765625 15.4375 38.421875 16.550781 38.480469 16.640625 C 38.554688 16.765625 39.09375 16.769531 40.585938 16.660156 C 41.6875 16.578125 42.617188 16.539062 42.648438 16.570312 C 42.679688 16.601562 42.449219 17.648438 42.132812 18.894531 C 41.816406 20.140625 41.546875 21.304688 41.53125 21.484375 C 41.5 21.855469 43.605469 25.535156 43.753906 25.375 C 43.808594 25.316406 44.558594 24.066406 45.421875 22.601562 Z M 32.097656 17.269531 C 32.378906 17.269531 33.503906 17.195312 34.601562 17.101562 L 36.59375 16.9375 L 36.4375 16.597656 C 36.351562 16.414062 36.167969 16.261719 36.027344 16.261719 C 35.660156 16.261719 32.84375 16.535156 32.316406 16.625 C 31.882812 16.695312 31.84375 16.660156 31.539062 15.9375 C 31.359375 15.519531 31.105469 15.015625 30.976562 14.820312 C 30.84375 14.621094 30.726562 14.359375 30.714844 14.242188 C 30.703125 14.121094 30.464844 13.523438 30.175781 12.910156 C 29.730469 11.945312 29.609375 11.792969 29.292969 11.792969 L 28.925781 11.792969 L 29.445312 12.980469 C 29.726562 13.632812 30.257812 14.851562 30.621094 15.683594 C 30.980469 16.515625 31.28125 17.28125 31.285156 17.382812 C 31.289062 17.507812 31.335938 17.519531 31.441406 17.417969 C 31.523438 17.335938 31.820312 17.269531 32.097656 17.269531 Z M 18.382812 17.125 C 18.339844 17.058594 18.371094 16.984375 18.445312 16.957031 C 18.523438 16.929688 19.078125 15.773438 19.675781 14.386719 C 20.683594 12.039062 20.738281 11.859375 20.460938 11.816406 C 20.296875 11.789062 20.109375 11.820312 20.039062 11.890625 C 19.972656 11.957031 19.460938 13.050781 18.898438 14.316406 C 18 16.351562 17.84375 16.617188 17.550781 16.605469 C 17.367188 16.597656 16.34375 16.503906 15.273438 16.402344 L 13.332031 16.214844 L 13.066406 16.5625 L 12.800781 16.90625 L 15.519531 17.128906 C 18.242188 17.355469 18.523438 17.351562 18.382812 17.125 Z M 32.179688 9.378906 C 30.300781 6.144531 29.285156 4.566406 28.757812 4.039062 C 27.839844 3.128906 26.582031 2.566406 25.242188 2.464844 C 22.804688 2.28125 20.789062 3.363281 19.546875 5.523438 C 19.035156 6.402344 18.519531 7.277344 18 8.152344 L 16.875 10.0625 L 32.578125 10.0625 Z M 32.179688 9.378906 "/>
<path style=" stroke:none;fill-rule:nonzero;fill:rgb(8.627451%,76.470588%,90.588235%);fill-opacity:1;" d="M 23.488281 53.78125 C 23.433594 53.726562 23.148438 53.664062 22.851562 53.640625 C 21.355469 53.523438 19.132812 51.804688 17.980469 49.878906 C 17.601562 49.242188 17.292969 48.65625 17.292969 48.574219 C 17.292969 48.492188 17.242188 48.40625 17.179688 48.378906 C 17.117188 48.351562 16.796875 47.875 16.464844 47.320312 C 16.132812 46.765625 15.445312 45.90625 14.933594 45.410156 L 14.011719 44.507812 L 10.527344 44.5 C 6.128906 44.492188 4.980469 44.296875 3.488281 43.300781 C 2.410156 42.585938 0.871094 40.820312 0.871094 40.300781 C 0.871094 40.195312 0.726562 39.851562 0.550781 39.535156 C 0.0742188 38.675781 0 36.273438 0.414062 35.058594 C 0.648438 34.367188 3.675781 28.917969 4.171875 28.292969 C 4.234375 28.214844 4.378906 27.96875 4.496094 27.746094 C 4.691406 27.375 4.679688 27.285156 4.351562 26.664062 C 4.097656 26.191406 3.828125 25.726562 3.550781 25.269531 C 2.042969 22.835938 0.648438 20.289062 0.414062 19.546875 C 0.0351562 18.339844 0.046875 16.386719 0.441406 15.226562 C 1.210938 12.96875 3.082031 11.140625 5.375 10.410156 C 6.042969 10.199219 6.890625 10.148438 10.535156 10.097656 L 14.894531 10.035156 L 16.710938 6.917969 C 18.140625 4.464844 18.726562 3.597656 19.472656 2.84375 C 20.5 1.804688 21.714844 1.132812 23.074219 0.851562 C 23.910156 0.679688 25.902344 0.636719 26.054688 0.785156 C 26.109375 0.835938 26.339844 0.894531 26.574219 0.910156 C 27.164062 0.957031 28.546875 1.609375 29.363281 2.226562 C 30.070312 2.761719 30.949219 3.808594 31.375 4.621094 C 31.507812 4.878906 31.78125 5.347656 31.980469 5.664062 C 32.179688 5.984375 32.414062 6.371094 32.507812 6.53125 C 32.597656 6.6875 33.070312 7.480469 33.554688 8.292969 C 34.042969 9.101562 34.441406 9.828125 34.441406 9.90625 C 34.441406 9.992188 36.0625 10.070312 38.691406 10.105469 C 41.027344 10.136719 43.277344 10.234375 43.691406 10.320312 C 46.027344 10.796875 48.367188 12.992188 49.027344 15.324219 C 49.621094 17.417969 49.28125 19.71875 48.160156 21.234375 C 47.980469 21.46875 47.609375 22.085938 47.332031 22.601562 C 47.054688 23.117188 46.492188 24.121094 46.078125 24.835938 C 45.667969 25.550781 45.195312 26.398438 45.027344 26.71875 L 44.726562 27.304688 L 46.066406 29.601562 C 46.804688 30.863281 47.660156 32.320312 47.964844 32.835938 C 48.785156 34.214844 49.082031 34.957031 49.261719 36.082031 C 49.652344 38.496094 48.660156 41.015625 46.65625 42.714844 C 44.871094 44.226562 44.128906 44.402344 39.488281 44.433594 L 35.742188 44.460938 L 34.390625 45.746094 C 33.648438 46.453125 32.957031 47.195312 32.855469 47.394531 C 32.757812 47.589844 32.273438 48.433594 31.78125 49.261719 C 30.285156 51.78125 28.53125 53.246094 26.441406 53.722656 C 25.710938 53.890625 23.640625 53.929688 23.488281 53.78125 Z M 18.949219 30.960938 C 19.578125 30.050781 20.140625 29.253906 20.191406 29.195312 C 20.242188 29.136719 20.59375 29.28125 20.972656 29.519531 L 21.660156 29.953125 L 28.03125 29.953125 L 29.492188 29.101562 L 30.730469 30.929688 L 31.96875 32.761719 L 31.976562 45.449219 L 32.335938 44.871094 C 32.601562 44.441406 32.695312 44.089844 32.695312 43.5 L 32.695312 42.707031 L 33.550781 42.023438 C 34.109375 41.578125 34.617188 40.988281 35.003906 40.339844 C 35.332031 39.792969 35.601562 39.300781 35.601562 39.246094 C 35.601562 39.132812 34.871094 39.746094 33.761719 40.78125 C 33.347656 41.167969 32.941406 41.484375 32.851562 41.484375 C 32.742188 41.484375 32.695312 40.070312 32.695312 36.804688 L 32.695312 32.125 L 31.664062 30.671875 C 31.09375 29.871094 30.652344 29.191406 30.679688 29.164062 C 30.710938 29.136719 31.34375 29.25 32.085938 29.414062 L 33.4375 29.714844 L 35.136719 28.054688 L 36.835938 26.390625 L 38.496094 25.792969 C 39.410156 25.464844 40.175781 25.21875 40.203125 25.246094 C 40.234375 25.273438 40.183594 26.59375 40.09375 28.179688 C 40.007812 29.761719 39.957031 31.21875 39.984375 31.40625 C 40.023438 31.675781 40.324219 31.261719 41.34375 29.527344 C 42.0625 28.304688 42.648438 27.273438 42.640625 27.242188 C 42.621094 27.0625 40.890625 24.191406 40.800781 24.1875 C 40.746094 24.1875 37.769531 25.257812 34.191406 26.566406 C 27.855469 28.882812 27.660156 28.945312 26.558594 28.945312 L 25.429688 28.945312 L 25.429688 11.792969 L 24.265625 11.792969 L 24.265625 28.945312 L 23.304688 28.945312 C 22.46875 28.945312 21.96875 28.808594 19.5625 27.925781 C 18.128906 27.402344 16.691406 26.878906 15.257812 26.355469 C 10.425781 24.601562 9.152344 24.101562 9.152344 23.945312 C 9.152344 23.847656 9.101562 23.738281 9.035156 23.699219 C 8.882812 23.605469 6.789062 27.148438 6.855469 27.390625 C 6.921875 27.65625 9.796875 32.535156 9.851562 32.480469 C 9.875 32.453125 9.796875 30.824219 9.675781 28.859375 C 9.554688 26.894531 9.476562 25.261719 9.503906 25.234375 C 9.53125 25.207031 10.003906 25.355469 10.550781 25.5625 C 11.101562 25.769531 11.847656 26.035156 12.207031 26.15625 C 12.707031 26.324219 13.253906 26.761719 14.554688 28.042969 L 16.253906 29.710938 L 17.460938 29.453125 C 18.128906 29.308594 18.753906 29.164062 18.855469 29.125 C 19.203125 28.992188 19.027344 29.335938 18.019531 30.746094 L 17 32.167969 L 17 36.824219 C 17 39.644531 16.945312 41.484375 16.863281 41.484375 C 16.789062 41.484375 15.972656 40.800781 15.046875 39.960938 C 14.125 39.125 13.367188 38.472656 13.367188 38.507812 C 13.367188 38.546875 13.621094 39.019531 13.929688 39.5625 C 14.339844 40.285156 14.820312 40.832031 15.738281 41.628906 L 16.984375 42.707031 L 16.992188 43.71875 C 17 44.476562 17.082031 44.878906 17.328125 45.339844 L 17.65625 45.953125 L 17.726562 39.285156 L 17.800781 32.621094 Z M 12.789062 41.925781 C 12.789062 41.089844 12.742188 40.988281 10.953125 37.925781 C 9.945312 36.195312 9.039062 34.683594 8.941406 34.566406 C 8.84375 34.445312 8.71875 34.226562 8.664062 34.074219 C 8.609375 33.925781 8.152344 33.113281 7.648438 32.273438 C 7.140625 31.433594 6.519531 30.371094 6.257812 29.917969 C 6 29.460938 5.769531 29.089844 5.742188 29.089844 C 5.691406 29.089844 4.238281 31.5625 2.949219 33.84375 C 1.984375 35.546875 1.839844 36.066406 1.917969 37.535156 C 1.964844 38.441406 2.070312 38.890625 2.390625 39.535156 C 3.171875 41.121094 4.800781 42.347656 6.507812 42.632812 C 6.882812 42.695312 8.453125 42.753906 9.988281 42.765625 L 12.789062 42.78125 Z M 42.875 42.636719 C 43.996094 42.425781 45.050781 41.898438 45.796875 41.179688 C 46.996094 40.019531 47.554688 38.707031 47.546875 37.070312 C 47.539062 35.554688 47.527344 35.535156 44.46875 30.285156 L 43.699219 28.960938 L 42.253906 31.425781 C 41.457031 32.78125 40.769531 33.992188 40.726562 34.121094 C 40.679688 34.246094 40.5625 34.445312 40.460938 34.566406 C 40.296875 34.757812 39.558594 35.988281 37.539062 39.460938 C 36.945312 40.480469 36.910156 40.601562 36.910156 41.660156 L 36.910156 42.78125 L 39.507812 42.78125 C 40.933594 42.78125 42.449219 42.714844 42.875 42.636719 Z M 7.21875 23.066406 L 8.429688 21.007812 L 7.921875 19 C 7.640625 17.898438 7.410156 16.890625 7.410156 16.761719 C 7.410156 16.550781 7.589844 16.535156 9.046875 16.625 C 9.945312 16.679688 10.730469 16.734375 10.792969 16.746094 C 10.890625 16.761719 12.949219 13.421875 13.609375 12.175781 L 13.824219 11.765625 L 10.144531 11.832031 C 6.074219 11.902344 5.511719 12 4.320312 12.84375 C 1.769531 14.640625 1.148438 17.90625 2.835938 20.644531 C 3.46875 21.675781 3.882812 22.398438 4.527344 23.609375 C 4.84375 24.207031 5.246094 24.894531 5.417969 25.140625 C 5.691406 25.527344 5.757812 25.558594 5.871094 25.359375 C 5.945312 25.230469 6.550781 24.199219 7.21875 23.066406 Z M 45.421875 22.601562 C 46.285156 21.136719 47.113281 19.617188 47.261719 19.226562 C 47.546875 18.484375 47.636719 16.980469 47.445312 16.105469 C 47.144531 14.738281 45.859375 13.140625 44.511719 12.460938 C 43.425781 11.917969 42.164062 11.777344 38.71875 11.824219 L 35.65625 11.863281 L 37.019531 14.167969 C 37.765625 15.4375 38.421875 16.550781 38.480469 16.640625 C 38.554688 16.765625 39.09375 16.769531 40.585938 16.660156 C 41.6875 16.578125 42.617188 16.539062 42.648438 16.570312 C 42.679688 16.601562 42.449219 17.648438 42.132812 18.894531 C 41.816406 20.140625 41.546875 21.304688 41.53125 21.484375 C 41.5 21.855469 43.605469 25.535156 43.753906 25.375 C 43.808594 25.316406 44.558594 24.066406 45.421875 22.601562 Z M 32.097656 17.269531 C 32.378906 17.269531 33.503906 17.195312 34.601562 17.101562 L 36.59375 16.9375 L 36.4375 16.597656 C 36.351562 16.414062 36.167969 16.261719 36.027344 16.261719 C 35.660156 16.261719 32.84375 16.535156 32.316406 16.625 C 31.882812 16.695312 31.84375 16.660156 31.539062 15.9375 C 31.359375 15.519531 31.105469 15.015625 30.976562 14.820312 C 30.84375 14.621094 30.726562 14.359375 30.714844 14.242188 C 30.703125 14.121094 30.464844 13.523438 30.175781 12.910156 C 29.730469 11.945312 29.609375 11.792969 29.292969 11.792969 L 28.925781 11.792969 L 29.445312 12.980469 C 29.726562 13.632812 30.257812 14.851562 30.621094 15.683594 C 30.980469 16.515625 31.28125 17.28125 31.285156 17.382812 C 31.289062 17.507812 31.335938 17.519531 31.441406 17.417969 C 31.523438 17.335938 31.820312 17.269531 32.097656 17.269531 Z M 18.382812 17.125 C 18.339844 17.058594 18.371094 16.984375 18.445312 16.957031 C 18.523438 16.929688 19.078125 15.773438 19.675781 14.386719 C 20.683594 12.039062 20.738281 11.859375 20.460938 11.816406 C 20.296875 11.789062 20.109375 11.820312 20.039062 11.890625 C 19.972656 11.957031 19.460938 13.050781 18.898438 14.316406 C 18 16.351562 17.84375 16.617188 17.550781 16.605469 C 17.367188 16.597656 16.34375 16.503906 15.273438 16.402344 L 13.332031 16.214844 L 13.066406 16.5625 L 12.800781 16.90625 L 15.519531 17.128906 C 18.242188 17.355469 18.523438 17.351562 18.382812 17.125 Z M 32.179688 9.378906 C 30.300781 6.144531 29.285156 4.566406 28.757812 4.039062 C 27.839844 3.128906 26.582031 2.566406 25.242188 2.464844 C 22.804688 2.28125 20.789062 3.363281 19.546875 5.523438 C 19.035156 6.402344 18.519531 7.277344 18 8.152344 L 16.875 10.0625 L 32.578125 10.0625 Z M 32.179688 9.378906 "/>
<path style=" stroke:none;fill-rule:nonzero;fill:rgb(4.313725%,76.078431%,90.196078%);fill-opacity:1;" d="M 23.488281 53.78125 C 23.433594 53.726562 23.160156 53.664062 22.882812 53.640625 C 22.121094 53.582031 20.667969 52.828125 19.742188 52.011719 C 18.914062 51.28125 18.1875 50.316406 17.570312 49.121094 C 17.386719 48.765625 17.199219 48.441406 17.152344 48.402344 C 17.105469 48.363281 16.75 47.8125 16.355469 47.175781 C 15.964844 46.542969 15.273438 45.683594 14.816406 45.265625 L 13.992188 44.503906 L 10.519531 44.496094 C 6.097656 44.484375 4.976562 44.292969 3.488281 43.300781 C 2.40625 42.582031 0.871094 40.820312 0.871094 40.300781 C 0.871094 40.191406 0.730469 39.847656 0.558594 39.53125 C 0.308594 39.074219 0.234375 38.640625 0.179688 37.339844 C 0.132812 36.210938 0.160156 35.71875 0.273438 35.71875 C 0.363281 35.71875 0.433594 35.550781 0.433594 35.34375 C 0.433594 35.140625 0.625 34.574219 0.855469 34.082031 C 1.285156 33.179688 3.933594 28.582031 4.207031 28.265625 C 4.289062 28.167969 4.359375 28.042969 4.359375 27.988281 C 4.359375 27.929688 4.464844 27.769531 4.597656 27.625 C 4.789062 27.410156 4.800781 27.324219 4.652344 27.144531 C 4.550781 27.023438 4.519531 26.925781 4.585938 26.925781 C 4.652344 26.925781 4.589844 26.84375 4.449219 26.742188 C 4.3125 26.640625 4.183594 26.460938 4.164062 26.34375 C 4.144531 26.230469 3.898438 25.777344 3.617188 25.339844 C 2.679688 23.890625 0.847656 20.695312 0.792969 20.414062 C 0.765625 20.261719 0.628906 19.929688 0.492188 19.675781 C 0.320312 19.355469 0.226562 18.75 0.179688 17.699219 C 0.125 16.429688 0.164062 16.042969 0.421875 15.289062 C 1.207031 12.980469 3.074219 11.140625 5.375 10.410156 C 6.046875 10.199219 6.84375 10.152344 10.390625 10.121094 C 12.707031 10.097656 14.472656 10.117188 14.3125 10.15625 C 14.152344 10.199219 13.964844 10.289062 13.890625 10.355469 C 13.722656 10.515625 14.382812 10.328125 14.679688 10.132812 C 14.941406 9.964844 15.300781 9.425781 15.882812 8.332031 C 16.117188 7.898438 16.425781 7.410156 16.574219 7.25 C 16.71875 7.09375 16.835938 6.910156 16.832031 6.847656 C 16.824219 6.585938 18.363281 4.121094 18.929688 3.492188 C 19.269531 3.121094 19.628906 2.691406 19.734375 2.542969 C 19.839844 2.394531 20.199219 2.136719 20.535156 1.96875 C 20.871094 1.800781 21.179688 1.605469 21.226562 1.535156 C 21.269531 1.46875 21.695312 1.273438 22.167969 1.105469 C 23.09375 0.773438 26.011719 0.535156 26.011719 0.789062 C 26.011719 0.863281 26.226562 0.921875 26.488281 0.921875 C 27.078125 0.921875 28.640625 1.644531 29.464844 2.300781 C 30.085938 2.796875 31.382812 4.386719 31.386719 4.65625 C 31.386719 4.738281 31.613281 5.117188 31.890625 5.507812 C 32.171875 5.894531 32.367188 6.257812 32.332031 6.3125 C 32.296875 6.367188 32.382812 6.539062 32.519531 6.6875 C 32.785156 6.980469 34.359375 9.574219 34.457031 9.882812 C 34.5 10.023438 35.46875 10.078125 38.65625 10.113281 C 40.929688 10.140625 43.160156 10.230469 43.609375 10.3125 C 45.984375 10.753906 48.328125 12.925781 49.042969 15.351562 C 49.167969 15.765625 49.25 16.152344 49.234375 16.21875 C 49.21875 16.28125 49.25 16.574219 49.3125 16.871094 C 49.453125 17.574219 49.082031 19.519531 48.671875 20.203125 C 48.5 20.492188 48.410156 20.726562 48.472656 20.726562 C 48.535156 20.726562 48.453125 20.875 48.292969 21.050781 C 48.015625 21.355469 46.210938 24.417969 46.210938 24.578125 C 46.210938 24.621094 45.871094 25.238281 45.457031 25.949219 L 44.707031 27.242188 L 45.058594 27.863281 C 45.25 28.203125 45.917969 29.359375 46.535156 30.429688 C 47.15625 31.5 47.664062 32.449219 47.664062 32.535156 C 47.664062 32.621094 47.726562 32.691406 47.800781 32.691406 C 47.878906 32.691406 48.207031 33.230469 48.53125 33.886719 C 48.984375 34.808594 49.15625 35.382812 49.285156 36.355469 C 49.410156 37.320312 49.410156 37.644531 49.277344 37.726562 C 49.183594 37.785156 49.148438 37.941406 49.203125 38.078125 C 49.316406 38.378906 48.988281 39.609375 48.792969 39.609375 C 48.714844 39.609375 48.683594 39.703125 48.730469 39.816406 C 48.773438 39.929688 48.542969 40.433594 48.21875 40.929688 C 47.195312 42.5 45.828125 43.574219 44.175781 44.101562 C 43.324219 44.378906 42.871094 44.40625 39.503906 44.421875 L 35.777344 44.4375 L 34.347656 45.804688 C 33.433594 46.671875 32.78125 47.433594 32.546875 47.894531 C 30.871094 51.214844 28.804688 53.183594 26.417969 53.730469 C 25.703125 53.890625 23.640625 53.929688 23.488281 53.78125 Z M 18.949219 30.960938 C 19.578125 30.050781 20.140625 29.253906 20.191406 29.195312 C 20.242188 29.136719 20.59375 29.28125 20.972656 29.519531 L 21.660156 29.953125 L 28.03125 29.953125 L 29.492188 29.101562 L 30.730469 30.929688 L 31.96875 32.761719 L 31.976562 45.449219 L 32.335938 44.871094 C 32.601562 44.441406 32.695312 44.089844 32.695312 43.5 L 32.695312 42.707031 L 33.550781 42.023438 C 34.109375 41.578125 34.617188 40.988281 35.003906 40.339844 C 35.332031 39.792969 35.601562 39.300781 35.601562 39.246094 C 35.601562 39.132812 34.871094 39.746094 33.761719 40.78125 C 33.347656 41.167969 32.941406 41.484375 32.851562 41.484375 C 32.742188 41.484375 32.695312 40.070312 32.695312 36.804688 L 32.695312 32.125 L 31.664062 30.671875 C 31.09375 29.871094 30.652344 29.191406 30.679688 29.164062 C 30.710938 29.136719 31.34375 29.25 32.085938 29.414062 L 33.4375 29.714844 L 35.136719 28.054688 L 36.835938 26.390625 L 38.496094 25.792969 C 39.410156 25.464844 40.175781 25.21875 40.203125 25.246094 C 40.234375 25.273438 40.183594 26.59375 40.09375 28.179688 C 40.007812 29.761719 39.957031 31.21875 39.984375 31.40625 C 40.023438 31.675781 40.324219 31.261719 41.34375 29.527344 C 42.0625 28.304688 42.648438 27.273438 42.640625 27.242188 C 42.621094 27.0625 40.890625 24.191406 40.800781 24.1875 C 40.746094 24.1875 37.769531 25.257812 34.191406 26.566406 C 27.855469 28.882812 27.660156 28.945312 26.558594 28.945312 L 25.429688 28.945312 L 25.429688 11.792969 L 24.265625 11.792969 L 24.265625 28.945312 L 23.304688 28.945312 C 22.46875 28.945312 21.96875 28.808594 19.5625 27.925781 C 18.128906 27.402344 16.691406 26.878906 15.257812 26.355469 C 10.425781 24.601562 9.152344 24.101562 9.152344 23.945312 C 9.152344 23.847656 9.101562 23.738281 9.035156 23.699219 C 8.882812 23.605469 6.789062 27.148438 6.855469 27.390625 C 6.921875 27.65625 9.796875 32.535156 9.851562 32.480469 C 9.875 32.453125 9.796875 30.824219 9.675781 28.859375 C 9.554688 26.894531 9.476562 25.261719 9.503906 25.234375 C 9.53125 25.207031 10.003906 25.355469 10.550781 25.5625 C 11.101562 25.769531 11.847656 26.035156 12.207031 26.15625 C 12.707031 26.324219 13.253906 26.761719 14.554688 28.042969 L 16.253906 29.710938 L 17.460938 29.453125 C 18.128906 29.308594 18.753906 29.164062 18.855469 29.125 C 19.203125 28.992188 19.027344 29.335938 18.019531 30.746094 L 17 32.167969 L 17 36.824219 C 17 39.644531 16.945312 41.484375 16.863281 41.484375 C 16.789062 41.484375 15.972656 40.800781 15.046875 39.960938 C 14.125 39.125 13.367188 38.472656 13.367188 38.507812 C 13.367188 38.546875 13.621094 39.019531 13.929688 39.5625 C 14.339844 40.285156 14.820312 40.832031 15.738281 41.628906 L 16.984375 42.707031 L 16.992188 43.71875 C 17 44.476562 17.082031 44.878906 17.328125 45.339844 L 17.65625 45.953125 L 17.726562 39.285156 L 17.800781 32.621094 Z M 12.789062 41.925781 C 12.789062 41.089844 12.742188 40.988281 10.953125 37.925781 C 9.945312 36.195312 9.039062 34.683594 8.941406 34.566406 C 8.84375 34.445312 8.71875 34.226562 8.664062 34.074219 C 8.609375 33.925781 8.152344 33.113281 7.648438 32.273438 C 7.140625 31.433594 6.519531 30.371094 6.257812 29.917969 C 6 29.460938 5.769531 29.089844 5.742188 29.089844 C 5.691406 29.089844 4.238281 31.5625 2.949219 33.84375 C 1.984375 35.546875 1.839844 36.066406 1.917969 37.535156 C 1.964844 38.441406 2.070312 38.890625 2.390625 39.535156 C 3.171875 41.121094 4.800781 42.347656 6.507812 42.632812 C 6.882812 42.695312 8.453125 42.753906 9.988281 42.765625 L 12.789062 42.78125 Z M 42.875 42.636719 C 43.996094 42.425781 45.050781 41.898438 45.796875 41.179688 C 46.996094 40.019531 47.554688 38.707031 47.546875 37.070312 C 47.539062 35.554688 47.527344 35.535156 44.46875 30.285156 L 43.699219 28.960938 L 42.253906 31.425781 C 41.457031 32.78125 40.769531 33.992188 40.726562 34.121094 C 40.679688 34.246094 40.5625 34.445312 40.460938 34.566406 C 40.296875 34.757812 39.558594 35.988281 37.539062 39.460938 C 36.945312 40.480469 36.910156 40.601562 36.910156 41.660156 L 36.910156 42.78125 L 39.507812 42.78125 C 40.933594 42.78125 42.449219 42.714844 42.875 42.636719 Z M 7.21875 23.066406 L 8.429688 21.007812 L 7.921875 19 C 7.640625 17.898438 7.410156 16.886719 7.410156 16.757812 C 7.410156 16.546875 7.550781 16.527344 8.535156 16.605469 C 9.15625 16.652344 9.949219 16.703125 10.296875 16.722656 L 10.929688 16.753906 L 11.953125 15.03125 C 12.445312 14.203125 12.929688 13.371094 13.410156 12.535156 L 13.839844 11.765625 L 10.152344 11.832031 C 6.074219 11.902344 5.515625 12 4.320312 12.84375 C 2.789062 13.921875 1.886719 15.636719 1.886719 17.460938 C 1.886719 18.601562 2.175781 19.566406 2.8125 20.582031 C 3.085938 21.019531 3.683594 22.085938 4.136719 22.957031 C 4.59375 23.824219 5.121094 24.722656 5.316406 24.949219 C 5.507812 25.175781 5.667969 25.4375 5.671875 25.53125 C 5.671875 25.625 5.75 25.570312 5.839844 25.410156 C 5.929688 25.253906 6.550781 24.199219 7.21875 23.066406 Z M 45.421875 22.601562 C 46.285156 21.136719 47.113281 19.617188 47.261719 19.226562 C 47.546875 18.484375 47.636719 16.980469 47.445312 16.105469 C 47.144531 14.738281 45.859375 13.140625 44.511719 12.460938 C 43.425781 11.917969 42.164062 11.777344 38.71875 11.824219 L 35.65625 11.863281 L 37.019531 14.167969 C 37.765625 15.4375 38.421875 16.550781 38.480469 16.640625 C 38.554688 16.765625 39.09375 16.769531 40.585938 16.660156 C 41.6875 16.578125 42.617188 16.539062 42.648438 16.570312 C 42.679688 16.601562 42.449219 17.648438 42.132812 18.894531 C 41.816406 20.140625 41.546875 21.304688 41.53125 21.484375 C 41.5 21.855469 43.605469 25.535156 43.753906 25.375 C 43.808594 25.316406 44.558594 24.066406 45.421875 22.601562 Z M 32.097656 17.269531 C 32.378906 17.269531 33.503906 17.195312 34.601562 17.101562 L 36.59375 16.9375 L 36.4375 16.597656 C 36.351562 16.414062 36.167969 16.261719 36.027344 16.261719 C 35.660156 16.261719 32.84375 16.535156 32.316406 16.625 C 31.882812 16.695312 31.84375 16.660156 31.539062 15.9375 C 31.359375 15.519531 31.105469 15.015625 30.976562 14.820312 C 30.84375 14.621094 30.726562 14.359375 30.714844 14.242188 C 30.703125 14.121094 30.464844 13.523438 30.175781 12.910156 C 29.730469 11.945312 29.609375 11.792969 29.292969 11.792969 L 28.925781 11.792969 L 29.445312 12.980469 C 30.988281 16.539062 31.238281 17.140625 31.222656 17.234375 C 31.179688 17.515625 31.257812 17.597656 31.417969 17.441406 C 31.511719 17.347656 31.820312 17.269531 32.097656 17.269531 Z M 18.382812 17.125 C 18.339844 17.058594 18.371094 16.984375 18.445312 16.957031 C 18.523438 16.929688 19.078125 15.773438 19.675781 14.386719 C 20.683594 12.039062 20.738281 11.859375 20.460938 11.816406 C 20.296875 11.789062 20.109375 11.820312 20.039062 11.890625 C 19.972656 11.957031 19.460938 13.050781 18.898438 14.316406 C 18 16.351562 17.84375 16.617188 17.550781 16.605469 C 17.367188 16.597656 16.34375 16.503906 15.273438 16.402344 L 13.332031 16.214844 L 13.066406 16.5625 L 12.800781 16.90625 L 15.519531 17.128906 C 18.242188 17.355469 18.523438 17.351562 18.382812 17.125 Z M 13.402344 10.542969 C 13.304688 10.503906 13.257812 10.410156 13.304688 10.335938 C 13.347656 10.265625 13.320312 10.207031 13.238281 10.207031 C 13.148438 10.210938 13.0625 10.261719 13.011719 10.335938 C 12.929688 10.46875 13.160156 10.617188 13.441406 10.617188 C 13.519531 10.617188 13.503906 10.582031 13.402344 10.542969 Z M 15.355469 9.890625 C 15.308594 9.777344 15.273438 9.808594 15.269531 9.976562 C 15.261719 10.128906 15.296875 10.214844 15.34375 10.167969 C 15.394531 10.121094 15.398438 9.996094 15.355469 9.890625 Z M 32.179688 9.378906 C 30.300781 6.144531 29.285156 4.566406 28.757812 4.039062 C 27.839844 3.128906 26.582031 2.566406 25.242188 2.464844 C 22.804688 2.28125 20.789062 3.363281 19.546875 5.523438 C 19.035156 6.402344 18.519531 7.277344 18 8.152344 L 16.875 10.0625 L 32.578125 10.0625 Z M 32.179688 9.378906 "/>
<path style=" stroke:none;fill-rule:nonzero;fill:rgb(1.960784%,76.078431%,90.196078%);fill-opacity:1;" d="M 23.539062 53.746094 C 23.421875 53.664062 23.101562 53.59375 22.835938 53.59375 C 22.003906 53.589844 20.59375 52.804688 19.511719 51.75 C 18.589844 50.847656 17.4375 49.179688 17.4375 48.746094 C 17.4375 48.644531 17.351562 48.507812 17.246094 48.445312 C 17.058594 48.332031 16.179688 46.890625 16.121094 46.601562 C 16.101562 46.519531 15.707031 46.101562 15.238281 45.671875 C 14.769531 45.238281 14.386719 44.808594 14.386719 44.714844 C 14.386719 44.523438 11.988281 44.417969 8.609375 44.464844 C 7.355469 44.480469 6.683594 44.4375 6.683594 44.339844 C 6.683594 44.253906 6.53125 44.226562 6.320312 44.28125 C 6.101562 44.335938 5.957031 44.3125 5.957031 44.214844 C 5.957031 44.125 5.835938 44.097656 5.671875 44.148438 C 5.253906 44.28125 3.371094 43.335938 2.59375 42.601562 C 1.722656 41.785156 0.972656 40.691406 0.738281 39.898438 C 0.632812 39.542969 0.472656 39.203125 0.382812 39.148438 C 0.15625 39.007812 0.0507812 35.71875 0.273438 35.71875 C 0.363281 35.71875 0.433594 35.601562 0.433594 35.457031 C 0.433594 35.003906 1.148438 33.367188 1.679688 32.597656 C 2.179688 31.875 2.359375 31.5625 3.539062 29.347656 C 3.847656 28.769531 4.144531 28.261719 4.199219 28.222656 C 4.363281 28.097656 4.792969 27.375 4.792969 27.226562 C 4.792969 27.144531 4.660156 26.957031 4.5 26.808594 C 4.335938 26.660156 4.175781 26.382812 4.136719 26.191406 C 4.101562 26 4.003906 25.824219 3.925781 25.796875 C 3.839844 25.765625 3.78125 25.683594 3.777344 25.59375 C 3.777344 25.507812 3.609375 25.222656 3.40625 24.957031 C 3.203125 24.691406 3.089844 24.472656 3.152344 24.472656 C 3.214844 24.472656 3.199219 24.421875 3.109375 24.363281 C 2.839844 24.183594 0.84375 20.714844 0.804688 20.359375 C 0.785156 20.171875 0.644531 19.839844 0.496094 19.617188 C 0.0546875 18.957031 0.0195312 16.535156 0.433594 15.257812 C 0.609375 14.710938 0.871094 14.140625 1.011719 13.992188 C 1.15625 13.839844 1.3125 13.582031 1.367188 13.421875 C 1.535156 12.894531 3.175781 11.414062 4.105469 10.945312 C 5.453125 10.269531 6.847656 10.0625 10.007812 10.0625 C 12.578125 10.0625 12.734375 10.078125 12.980469 10.363281 C 13.144531 10.554688 13.332031 10.628906 13.488281 10.570312 C 13.695312 10.496094 13.90625 10.4375 14.125 10.394531 C 14.339844 10.351562 14.617188 10.210938 14.742188 10.082031 C 15.175781 9.625 15.71875 8.910156 15.628906 8.910156 C 15.5 8.910156 16.257812 7.613281 16.613281 7.214844 C 16.773438 7.035156 16.863281 6.890625 16.8125 6.890625 C 16.71875 6.890625 18.125 4.441406 18.296875 4.296875 C 18.347656 4.257812 18.675781 3.867188 19.035156 3.433594 C 19.882812 2.390625 20.3125 1.988281 20.570312 1.988281 C 20.683594 1.988281 20.917969 1.851562 21.085938 1.683594 C 21.613281 1.164062 22.898438 0.804688 24.523438 0.726562 C 25.394531 0.683594 26.011719 0.710938 26.011719 0.789062 C 26.011719 0.863281 26.234375 0.921875 26.503906 0.921875 C 27.273438 0.921875 29.066406 1.878906 29.960938 2.765625 C 30.390625 3.195312 30.925781 3.90625 31.152344 4.347656 C 31.378906 4.789062 31.71875 5.332031 31.910156 5.550781 C 32.101562 5.773438 32.265625 6.003906 32.277344 6.0625 C 32.289062 6.121094 32.304688 6.234375 32.3125 6.308594 C 32.324219 6.386719 32.429688 6.566406 32.550781 6.707031 C 32.808594 7.011719 34.375 9.621094 34.457031 9.886719 C 34.5 10.027344 35.449219 10.078125 38.582031 10.117188 C 43.105469 10.171875 44.066406 10.28125 45.203125 10.847656 C 46.15625 11.320312 47.492188 12.429688 47.671875 12.894531 C 47.742188 13.078125 47.855469 13.234375 47.925781 13.234375 C 48.222656 13.234375 49.355469 15.847656 49.179688 16.128906 C 49.136719 16.199219 49.175781 16.5 49.265625 16.796875 C 49.398438 17.226562 49.382812 17.597656 49.199219 18.558594 C 49.070312 19.226562 48.878906 19.875 48.769531 20 C 48.660156 20.121094 48.519531 20.386719 48.460938 20.582031 C 48.402344 20.78125 48.273438 21.042969 48.171875 21.160156 C 47.941406 21.429688 46.210938 24.460938 46.210938 24.59375 C 46.210938 24.648438 45.882812 25.230469 45.484375 25.890625 C 45.082031 26.546875 44.757812 27.148438 44.757812 27.222656 C 44.757812 27.378906 45.113281 28.039062 45.644531 28.871094 C 45.847656 29.1875 46.394531 30.160156 46.863281 31.03125 C 47.332031 31.902344 47.828125 32.734375 47.960938 32.875 C 48.097656 33.019531 48.320312 33.410156 48.460938 33.742188 C 48.597656 34.078125 48.804688 34.523438 48.917969 34.734375 C 49.207031 35.285156 49.425781 37.144531 49.238281 37.492188 C 49.15625 37.644531 49.128906 37.972656 49.175781 38.222656 C 49.234375 38.535156 49.171875 38.859375 48.976562 39.238281 C 48.820312 39.546875 48.722656 39.847656 48.757812 39.90625 C 48.890625 40.117188 47.378906 42.160156 46.796875 42.5625 C 46.472656 42.78125 46.210938 43.007812 46.210938 43.066406 C 46.210938 43.121094 45.882812 43.34375 45.484375 43.558594 C 45.082031 43.777344 44.757812 43.90625 44.757812 43.851562 C 44.757812 43.796875 44.675781 43.820312 44.574219 43.902344 C 44.078125 44.304688 42.992188 44.417969 39.441406 44.425781 L 35.792969 44.4375 L 34.355469 45.785156 C 33.371094 46.707031 32.796875 47.371094 32.550781 47.878906 C 32.066406 48.859375 31.140625 50.355469 30.753906 50.777344 C 29.355469 52.296875 28.972656 52.613281 27.824219 53.175781 C 26.6875 53.734375 26.496094 53.78125 25.179688 53.835938 C 24.332031 53.871094 23.671875 53.835938 23.539062 53.746094 Z M 18.949219 30.960938 C 19.578125 30.050781 20.140625 29.253906 20.191406 29.195312 C 20.242188 29.136719 20.59375 29.28125 20.972656 29.519531 L 21.660156 29.953125 L 28.03125 29.953125 L 29.492188 29.101562 L 30.730469 30.929688 L 31.96875 32.761719 L 31.976562 45.449219 L 32.335938 44.871094 C 32.601562 44.441406 32.695312 44.089844 32.695312 43.5 L 32.695312 42.707031 L 33.550781 42.023438 C 34.109375 41.578125 34.617188 40.988281 35.003906 40.339844 C 35.332031 39.792969 35.601562 39.300781 35.601562 39.246094 C 35.601562 39.132812 34.871094 39.746094 33.761719 40.78125 C 33.347656 41.167969 32.941406 41.484375 32.851562 41.484375 C 32.742188 41.484375 32.695312 40.070312 32.695312 36.804688 L 32.695312 32.125 L 31.664062 30.671875 C 31.09375 29.871094 30.652344 29.191406 30.679688 29.164062 C 30.710938 29.136719 31.34375 29.25 32.085938 29.414062 L 33.4375 29.714844 L 35.136719 28.054688 L 36.835938 26.390625 L 38.496094 25.792969 C 39.410156 25.464844 40.175781 25.21875 40.203125 25.246094 C 40.234375 25.273438 40.183594 26.59375 40.09375 28.179688 C 40.007812 29.761719 39.957031 31.21875 39.984375 31.40625 C 40.023438 31.675781 40.324219 31.261719 41.34375 29.527344 C 42.0625 28.304688 42.648438 27.273438 42.640625 27.242188 C 42.621094 27.0625 40.890625 24.191406 40.800781 24.1875 C 40.746094 24.1875 37.769531 25.257812 34.191406 26.566406 C 27.855469 28.882812 27.660156 28.945312 26.558594 28.945312 L 25.429688 28.945312 L 25.429688 11.792969 L 24.265625 11.792969 L 24.265625 28.945312 L 23.304688 28.945312 C 22.46875 28.945312 21.96875 28.808594 19.5625 27.925781 C 18.128906 27.402344 16.691406 26.878906 15.257812 26.355469 C 10.425781 24.601562 9.152344 24.101562 9.152344 23.945312 C 9.152344 23.847656 9.101562 23.738281 9.035156 23.699219 C 8.882812 23.605469 6.789062 27.148438 6.855469 27.390625 C 6.921875 27.65625 9.796875 32.535156 9.851562 32.480469 C 9.875 32.453125 9.796875 30.824219 9.675781 28.859375 C 9.554688 26.894531 9.476562 25.261719 9.503906 25.234375 C 9.53125 25.207031 10.003906 25.355469 10.550781 25.5625 C 11.101562 25.769531 11.847656 26.035156 12.207031 26.15625 C 12.707031 26.324219 13.253906 26.761719 14.554688 28.042969 L 16.253906 29.710938 L 17.460938 29.453125 C 18.128906 29.308594 18.753906 29.164062 18.855469 29.125 C 19.203125 28.992188 19.027344 29.335938 18.019531 30.746094 L 17 32.167969 L 17 36.824219 C 17 39.644531 16.945312 41.484375 16.863281 41.484375 C 16.789062 41.484375 15.972656 40.800781 15.046875 39.960938 C 14.125 39.125 13.367188 38.472656 13.367188 38.507812 C 13.367188 38.546875 13.621094 39.019531 13.929688 39.5625 C 14.339844 40.285156 14.820312 40.832031 15.738281 41.628906 L 16.984375 42.707031 L 16.992188 43.71875 C 17 44.476562 17.082031 44.878906 17.328125 45.339844 L 17.65625 45.953125 L 17.726562 39.285156 L 17.800781 32.621094 Z M 12.789062 41.925781 C 12.789062 41.089844 12.742188 40.988281 10.953125 37.925781 C 9.945312 36.195312 9.039062 34.683594 8.941406 34.566406 C 8.84375 34.445312 8.71875 34.226562 8.664062 34.074219 C 8.609375 33.925781 8.152344 33.113281 7.648438 32.273438 C 7.140625 31.433594 6.519531 30.371094 6.257812 29.917969 C 6 29.460938 5.769531 29.089844 5.742188 29.089844 C 5.691406 29.089844 4.238281 31.5625 2.949219 33.84375 C 1.984375 35.546875 1.839844 36.066406 1.917969 37.535156 C 1.964844 38.441406 2.070312 38.890625 2.390625 39.535156 C 3.171875 41.121094 4.800781 42.347656 6.507812 42.632812 C 6.882812 42.695312 8.453125 42.753906 9.988281 42.765625 L 12.789062 42.78125 Z M 42.875 42.636719 C 43.996094 42.425781 45.050781 41.898438 45.796875 41.179688 C 46.996094 40.019531 47.554688 38.707031 47.546875 37.070312 C 47.539062 35.554688 47.527344 35.535156 44.46875 30.285156 L 43.699219 28.960938 L 42.253906 31.425781 C 41.457031 32.78125 40.769531 33.992188 40.726562 34.121094 C 40.679688 34.246094 40.5625 34.445312 40.460938 34.566406 C 40.296875 34.757812 39.558594 35.988281 37.539062 39.460938 C 36.945312 40.480469 36.910156 40.601562 36.910156 41.660156 L 36.910156 42.78125 L 39.507812 42.78125 C 40.933594 42.78125 42.449219 42.714844 42.875 42.636719 Z M 7.214844 23.070312 L 8.425781 21.015625 L 7.886719 18.859375 C 7.589844 17.675781 7.386719 16.667969 7.433594 16.621094 C 7.476562 16.578125 8.28125 16.59375 9.21875 16.65625 L 10.921875 16.773438 L 11.511719 15.757812 C 11.835938 15.203125 12.335938 14.371094 12.625 13.90625 C 12.933594 13.410156 13.234375 12.90625 13.515625 12.394531 L 13.882812 11.71875 L 10.246094 11.796875 C 7.367188 11.859375 6.441406 11.929688 5.792969 12.125 C 3.507812 12.828125 1.886719 15.042969 1.886719 17.460938 C 1.886719 18.601562 2.175781 19.570312 2.816406 20.582031 C 3.089844 21.019531 3.589844 21.925781 3.925781 22.601562 C 4.261719 23.277344 4.804688 24.230469 5.132812 24.722656 C 5.636719 25.480469 5.753906 25.582031 5.867188 25.371094 C 5.945312 25.234375 6.550781 24.199219 7.214844 23.070312 Z M 45.421875 22.601562 C 46.285156 21.136719 47.113281 19.617188 47.261719 19.226562 C 47.546875 18.484375 47.636719 16.980469 47.445312 16.105469 C 47.144531 14.738281 45.859375 13.140625 44.511719 12.460938 C 43.425781 11.917969 42.164062 11.777344 38.71875 11.824219 L 35.65625 11.863281 L 37.019531 14.167969 C 37.765625 15.4375 38.421875 16.550781 38.480469 16.640625 C 38.554688 16.765625 39.09375 16.769531 40.585938 16.660156 C 41.6875 16.578125 42.617188 16.539062 42.648438 16.570312 C 42.679688 16.601562 42.449219 17.648438 42.132812 18.894531 C 41.816406 20.140625 41.546875 21.304688 41.53125 21.484375 C 41.5 21.855469 43.605469 25.535156 43.753906 25.375 C 43.808594 25.316406 44.558594 24.066406 45.421875 22.601562 Z M 32.097656 17.269531 C 32.378906 17.269531 33.503906 17.195312 34.601562 17.101562 L 36.59375 16.9375 L 36.4375 16.597656 C 36.351562 16.414062 36.167969 16.261719 36.03125 16.261719 C 35.664062 16.261719 32.84375 16.535156 32.316406 16.625 C 31.882812 16.695312 31.847656 16.660156 31.539062 15.9375 C 31.359375 15.519531 31.105469 15.015625 30.976562 14.820312 C 30.84375 14.621094 30.726562 14.359375 30.714844 14.242188 C 30.707031 14.121094 30.464844 13.523438 30.179688 12.910156 C 29.734375 11.945312 29.609375 11.792969 29.292969 11.792969 L 28.929688 11.792969 L 29.445312 12.980469 C 30.988281 16.539062 31.238281 17.140625 31.222656 17.234375 C 31.179688 17.515625 31.257812 17.597656 31.417969 17.441406 C 31.511719 17.347656 31.820312 17.269531 32.097656 17.269531 Z M 18.382812 17.125 C 18.339844 17.058594 18.371094 16.984375 18.449219 16.957031 C 18.523438 16.929688 19.078125 15.773438 19.675781 14.386719 C 20.6875 12.039062 20.742188 11.859375 20.464844 11.816406 C 20.296875 11.789062 20.109375 11.820312 20.042969 11.890625 C 19.972656 11.957031 19.460938 13.050781 18.902344 14.316406 C 18.003906 16.351562 17.84375 16.617188 17.550781 16.605469 C 17.367188 16.597656 16.34375 16.503906 15.277344 16.402344 L 13.332031 16.214844 L 13.066406 16.5625 L 12.800781 16.90625 L 15.519531 17.128906 C 18.242188 17.355469 18.523438 17.351562 18.382812 17.125 Z M 15.546875 9.988281 C 15.695312 9.8125 15.6875 9.773438 15.507812 9.773438 C 15.386719 9.773438 15.25 9.871094 15.203125 9.988281 C 15.160156 10.109375 15.175781 10.207031 15.242188 10.207031 C 15.3125 10.207031 15.449219 10.109375 15.546875 9.988281 Z M 32.179688 9.378906 C 30.300781 6.144531 29.285156 4.566406 28.757812 4.039062 C 27.839844 3.128906 26.582031 2.566406 25.242188 2.464844 C 22.808594 2.28125 20.789062 3.363281 19.546875 5.523438 C 19.035156 6.402344 18.519531 7.277344 18.003906 8.152344 L 16.875 10.0625 L 32.578125 10.0625 Z M 13.40625 10.101562 C 13.628906 10.070312 13.953125 10.070312 14.132812 10.105469 C 14.3125 10.140625 14.132812 10.164062 13.730469 10.164062 C 13.332031 10.164062 13.1875 10.136719 13.40625 10.101562 Z M 13.40625 10.101562 "/>
<path style=" stroke:none;fill-rule:nonzero;fill:rgb(0.784314%,76.078431%,90.588235%);fill-opacity:1;" d="M 23.613281 53.746094 C 23.453125 53.671875 23.109375 53.605469 22.847656 53.601562 C 22.585938 53.59375 22.261719 53.535156 22.121094 53.464844 C 21.871094 53.34375 21.617188 53.226562 21.359375 53.117188 C 20.191406 52.609375 18.566406 50.949219 17.808594 49.492188 C 17.5 48.894531 17.195312 48.402344 17.136719 48.402344 C 17.078125 48.402344 16.957031 48.222656 16.871094 48.003906 C 16.785156 47.789062 16.542969 47.359375 16.335938 47.050781 C 16.128906 46.746094 16.046875 46.550781 16.152344 46.613281 C 16.261719 46.679688 16.183594 46.535156 15.984375 46.289062 C 15.785156 46.046875 15.578125 45.867188 15.527344 45.898438 C 15.476562 45.925781 15.332031 45.792969 15.203125 45.597656 C 15.078125 45.40625 14.804688 45.082031 14.597656 44.878906 L 14.222656 44.507812 L 10.46875 44.472656 C 8.402344 44.453125 6.789062 44.390625 6.878906 44.332031 C 7.027344 44.238281 6.242188 44.148438 5.667969 44.195312 C 5.546875 44.203125 5.25 44.121094 5.011719 44.011719 C 4.730469 43.882812 4.445312 43.761719 4.160156 43.652344 C 3.542969 43.417969 2.488281 42.628906 2.390625 42.324219 C 2.34375 42.179688 2.210938 42.058594 2.097656 42.058594 C 1.980469 42.058594 1.886719 41.964844 1.886719 41.84375 C 1.886719 41.722656 1.832031 41.628906 1.765625 41.628906 C 1.621094 41.628906 0.582031 39.664062 0.582031 39.390625 C 0.574219 39.277344 0.503906 39.179688 0.398438 39.140625 C 0.167969 39.066406 0.0625 35.863281 0.289062 35.863281 C 0.367188 35.863281 0.433594 35.746094 0.433594 35.605469 C 0.433594 35.125 1.199219 33.15625 1.453125 32.980469 C 1.660156 32.839844 2.761719 30.953125 2.761719 30.742188 C 2.761719 30.625 2.808594 30.527344 2.871094 30.527344 C 2.929688 30.527344 3.140625 30.222656 3.335938 29.84375 C 3.53125 29.46875 3.875 28.890625 4.097656 28.558594 C 4.320312 28.226562 4.503906 27.886719 4.503906 27.800781 C 4.503906 27.714844 4.570312 27.648438 4.648438 27.648438 C 4.90625 27.648438 4.804688 27.082031 4.492188 26.769531 C 4.328125 26.609375 4.171875 26.363281 4.144531 26.230469 C 4.0625 25.84375 3.328125 24.621094 3.175781 24.621094 C 3.097656 24.621094 3.074219 24.554688 3.125 24.476562 C 3.171875 24.394531 3.144531 24.332031 3.058594 24.332031 C 2.976562 24.332031 2.90625 24.269531 2.90625 24.195312 C 2.90625 24.121094 2.710938 23.769531 2.46875 23.417969 C 2.230469 23.066406 2.035156 22.734375 2.035156 22.683594 C 2.035156 22.636719 1.773438 22.183594 1.453125 21.683594 C 1.132812 21.179688 0.871094 20.664062 0.871094 20.539062 C 0.871094 20.246094 0.558594 19.53125 0.367188 19.402344 C 0.289062 19.347656 0.199219 18.617188 0.167969 17.777344 C 0.121094 16.492188 0.164062 16.09375 0.433594 15.257812 C 0.609375 14.710938 0.878906 14.132812 1.03125 13.972656 C 1.183594 13.808594 1.308594 13.605469 1.308594 13.511719 C 1.308594 13.421875 1.734375 12.910156 2.261719 12.367188 C 4.070312 10.507812 5.710938 10.027344 10.007812 10.089844 C 12.304688 10.121094 12.714844 10.164062 12.96875 10.378906 C 13.28125 10.648438 13.6875 10.621094 14.414062 10.277344 C 14.703125 10.140625 14.824219 10.132812 14.875 10.257812 C 14.914062 10.347656 14.949219 10.285156 14.953125 10.117188 C 14.960938 9.953125 15.128906 9.640625 15.332031 9.425781 C 15.53125 9.210938 15.691406 8.949219 15.691406 8.835938 C 15.691406 8.628906 16.195312 7.695312 16.507812 7.324219 C 16.605469 7.203125 16.929688 6.644531 17.21875 6.082031 C 17.949219 4.675781 19.535156 2.742188 20.417969 2.175781 C 20.816406 1.925781 21.257812 1.617188 21.398438 1.492188 C 21.535156 1.371094 21.738281 1.269531 21.839844 1.269531 C 21.945312 1.269531 22.089844 1.210938 22.167969 1.140625 C 22.546875 0.785156 26.011719 0.5 26.011719 0.824219 C 26.011719 0.894531 26.238281 0.953125 26.519531 0.953125 C 27.289062 0.953125 29.019531 1.863281 29.914062 2.742188 C 30.34375 3.160156 30.875 3.859375 31.097656 4.296875 C 31.320312 4.730469 31.675781 5.285156 31.882812 5.523438 C 32.089844 5.757812 32.257812 6.054688 32.257812 6.179688 C 32.257812 6.300781 32.375 6.53125 32.515625 6.683594 C 32.789062 6.980469 34.359375 9.574219 34.457031 9.886719 C 34.503906 10.035156 35.375 10.074219 38.542969 10.078125 C 40.917969 10.078125 42.605469 10.132812 42.65625 10.214844 C 42.703125 10.289062 43.054688 10.351562 43.4375 10.351562 C 43.945312 10.351562 44.414062 10.488281 45.140625 10.847656 C 46.097656 11.324219 47.589844 12.507812 47.589844 12.796875 C 47.589844 12.867188 47.738281 13.0625 47.917969 13.230469 C 48.457031 13.730469 49.109375 15.230469 49.113281 15.984375 C 49.117188 16.191406 49.191406 16.574219 49.28125 16.832031 C 49.414062 17.210938 49.394531 17.53125 49.179688 18.472656 C 48.875 19.820312 48.617188 20.371094 47.136719 22.851562 C 46.546875 23.839844 46.0625 24.722656 46.0625 24.8125 C 46.0625 24.90625 45.769531 25.433594 45.410156 25.984375 C 45.050781 26.535156 44.757812 27.074219 44.757812 27.175781 C 44.757812 27.375 45.070312 27.976562 45.644531 28.871094 C 45.847656 29.1875 46.421875 30.207031 46.917969 31.136719 C 47.417969 32.066406 47.886719 32.867188 47.964844 32.914062 C 48.132812 33.015625 48.71875 34.132812 48.605469 34.132812 C 48.5625 34.132812 48.605469 34.277344 48.707031 34.457031 C 49.0625 35.082031 49.25 35.789062 49.25 36.507812 C 49.25 37.738281 49.175781 38.679688 49.0625 38.859375 C 49.003906 38.957031 49.007812 39.035156 49.070312 39.035156 C 49.136719 39.035156 49.105469 39.089844 49.003906 39.15625 C 48.902344 39.21875 48.792969 39.484375 48.757812 39.746094 C 48.6875 40.289062 47.90625 41.53125 47.28125 42.085938 C 47.050781 42.292969 46.609375 42.691406 46.296875 42.976562 C 45.984375 43.257812 45.671875 43.457031 45.605469 43.414062 C 45.539062 43.375 45.484375 43.414062 45.484375 43.5 C 45.484375 43.589844 45.417969 43.621094 45.339844 43.574219 C 45.257812 43.523438 45.191406 43.550781 45.191406 43.632812 C 45.191406 43.714844 45.085938 43.738281 44.953125 43.6875 C 44.777344 43.621094 44.742188 43.648438 44.828125 43.789062 C 44.910156 43.921875 44.890625 43.945312 44.761719 43.867188 C 44.660156 43.804688 44.535156 43.828125 44.476562 43.917969 C 44.246094 44.289062 42.523438 44.457031 39.453125 44.414062 C 37.773438 44.386719 36.238281 44.402344 36.039062 44.445312 C 35.554688 44.542969 32.550781 47.429688 32.550781 47.792969 C 32.550781 47.945312 32.371094 48.324219 32.152344 48.636719 C 31.929688 48.945312 31.625 49.425781 31.472656 49.703125 C 31.210938 50.175781 29.683594 52.027344 29.476562 52.121094 C 29.421875 52.144531 29.230469 52.292969 29.046875 52.449219 C 28.863281 52.609375 28.222656 52.96875 27.617188 53.25 C 26.675781 53.6875 26.335938 53.769531 25.210938 53.820312 C 24.492188 53.851562 23.773438 53.820312 23.613281 53.746094 Z M 18.949219 30.960938 C 19.578125 30.050781 20.140625 29.253906 20.191406 29.195312 C 20.242188 29.136719 20.59375 29.28125 20.972656 29.519531 L 21.660156 29.953125 L 28.03125 29.953125 L 29.492188 29.101562 L 30.730469 30.929688 L 31.96875 32.761719 L 31.976562 45.449219 L 32.335938 44.871094 C 32.601562 44.441406 32.695312 44.089844 32.695312 43.5 L 32.695312 42.707031 L 33.550781 42.023438 C 34.109375 41.578125 34.617188 40.988281 35.003906 40.339844 C 35.332031 39.792969 35.601562 39.300781 35.601562 39.246094 C 35.601562 39.132812 34.871094 39.746094 33.761719 40.78125 C 33.347656 41.167969 32.941406 41.484375 32.851562 41.484375 C 32.742188 41.484375 32.695312 40.070312 32.695312 36.804688 L 32.695312 32.125 L 31.664062 30.671875 C 31.09375 29.871094 30.652344 29.191406 30.679688 29.164062 C 30.710938 29.136719 31.34375 29.25 32.085938 29.414062 L 33.4375 29.714844 L 35.136719 28.054688 L 36.835938 26.390625 L 38.496094 25.792969 C 39.410156 25.464844 40.175781 25.21875 40.203125 25.246094 C 40.234375 25.273438 40.183594 26.59375 40.09375 28.179688 C 40.007812 29.761719 39.957031 31.21875 39.984375 31.40625 C 40.023438 31.675781 40.324219 31.261719 41.34375 29.527344 C 42.0625 28.304688 42.648438 27.273438 42.640625 27.242188 C 42.621094 27.0625 40.890625 24.191406 40.800781 24.1875 C 40.746094 24.1875 37.769531 25.257812 34.191406 26.566406 C 27.855469 28.882812 27.660156 28.945312 26.558594 28.945312 L 25.429688 28.945312 L 25.429688 11.792969 L 24.265625 11.792969 L 24.265625 28.945312 L 23.304688 28.945312 C 22.46875 28.945312 21.96875 28.808594 19.5625 27.925781 C 18.128906 27.402344 16.691406 26.878906 15.257812 26.355469 C 10.425781 24.601562 9.152344 24.101562 9.152344 23.945312 C 9.152344 23.847656 9.101562 23.738281 9.035156 23.699219 C 8.882812 23.605469 6.789062 27.148438 6.855469 27.390625 C 6.921875 27.65625 9.796875 32.535156 9.851562 32.480469 C 9.875 32.453125 9.796875 30.824219 9.675781 28.859375 C 9.554688 26.894531 9.476562 25.261719 9.503906 25.234375 C 9.53125 25.207031 10.003906 25.355469 10.550781 25.5625 C 11.101562 25.769531 11.847656 26.035156 12.207031 26.15625 C 12.707031 26.324219 13.253906 26.761719 14.554688 28.042969 L 16.253906 29.710938 L 17.460938 29.453125 C 18.128906 29.308594 18.753906 29.164062 18.855469 29.125 C 19.203125 28.992188 19.027344 29.335938 18.019531 30.746094 L 17 32.167969 L 17 36.824219 C 17 39.644531 16.945312 41.484375 16.863281 41.484375 C 16.789062 41.484375 15.972656 40.800781 15.046875 39.960938 C 14.125 39.125 13.367188 38.472656 13.367188 38.507812 C 13.367188 38.546875 13.621094 39.019531 13.929688 39.5625 C 14.339844 40.285156 14.820312 40.832031 15.738281 41.628906 L 16.984375 42.707031 L 16.992188 43.71875 C 17 44.476562 17.082031 44.878906 17.328125 45.339844 L 17.65625 45.953125 L 17.726562 39.285156 L 17.800781 32.621094 Z M 12.789062 41.925781 C 12.789062 41.089844 12.742188 40.988281 10.953125 37.925781 C 9.945312 36.195312 9.039062 34.683594 8.941406 34.566406 C 8.84375 34.445312 8.71875 34.226562 8.664062 34.074219 C 8.609375 33.925781 8.152344 33.113281 7.648438 32.273438 C 7.140625 31.433594 6.519531 30.371094 6.257812 29.917969 C 6 29.460938 5.769531 29.089844 5.742188 29.089844 C 5.691406 29.089844 4.238281 31.5625 2.949219 33.84375 C 1.984375 35.546875 1.839844 36.066406 1.917969 37.535156 C 1.964844 38.441406 2.070312 38.890625 2.390625 39.535156 C 3.171875 41.121094 4.800781 42.347656 6.507812 42.632812 C 6.882812 42.695312 8.453125 42.753906 9.988281 42.765625 L 12.789062 42.78125 Z M 42.875 42.636719 C 43.996094 42.425781 45.050781 41.898438 45.796875 41.179688 C 46.996094 40.019531 47.554688 38.707031 47.546875 37.070312 C 47.539062 35.554688 47.527344 35.535156 44.46875 30.285156 L 43.699219 28.960938 L 42.253906 31.425781 C 41.457031 32.78125 40.769531 33.992188 40.726562 34.121094 C 40.679688 34.246094 40.5625 34.445312 40.460938 34.566406 C 40.296875 34.757812 39.558594 35.988281 37.539062 39.460938 C 36.945312 40.480469 36.910156 40.601562 36.910156 41.660156 L 36.910156 42.78125 L 39.507812 42.78125 C 40.933594 42.78125 42.449219 42.714844 42.875 42.636719 Z M 7.695312 22.3125 C 7.738281 22.273438 7.921875 21.957031 8.097656 21.609375 L 8.425781 20.976562 L 7.917969 18.972656 C 7.640625 17.875 7.410156 16.878906 7.410156 16.765625 C 7.410156 16.601562 7.578125 16.566406 8.171875 16.613281 C 8.59375 16.644531 9.386719 16.6875 9.9375 16.707031 L 10.9375 16.742188 L 11.425781 15.960938 C 11.691406 15.53125 11.992188 15.015625 12.085938 14.820312 C 12.183594 14.621094 12.535156 14.035156 12.871094 13.519531 C 13.203125 13.007812 13.523438 12.4375 13.578125 12.257812 C 13.632812 12.082031 13.738281 11.933594 13.8125 11.933594 C 13.886719 11.933594 13.949219 11.886719 13.949219 11.828125 C 13.949219 11.707031 8.5 11.734375 7.269531 11.863281 C 4.753906 12.125 2.898438 13.5 2.195312 15.628906 C 1.621094 17.355469 1.839844 19.019531 2.84375 20.65625 C 3.136719 21.132812 3.753906 22.25 4.21875 23.140625 C 4.679688 24.027344 5.210938 24.941406 5.398438 25.164062 L 5.738281 25.570312 L 6.675781 23.980469 C 7.191406 23.101562 7.648438 22.351562 7.695312 22.3125 Z M 45.421875 22.601562 C 46.285156 21.136719 47.113281 19.617188 47.261719 19.226562 C 47.546875 18.484375 47.636719 16.980469 47.445312 16.105469 C 47.144531 14.738281 45.859375 13.140625 44.511719 12.460938 C 43.425781 11.917969 42.164062 11.777344 38.71875 11.824219 L 35.65625 11.863281 L 37.019531 14.167969 C 37.765625 15.4375 38.421875 16.550781 38.480469 16.640625 C 38.554688 16.765625 39.09375 16.769531 40.585938 16.660156 C 41.6875 16.578125 42.617188 16.539062 42.648438 16.570312 C 42.679688 16.601562 42.449219 17.648438 42.132812 18.894531 C 41.816406 20.140625 41.546875 21.304688 41.53125 21.484375 C 41.5 21.855469 43.605469 25.535156 43.753906 25.375 C 43.808594 25.316406 44.558594 24.066406 45.421875 22.601562 Z M 32.097656 17.269531 C 32.378906 17.269531 33.503906 17.195312 34.601562 17.101562 L 36.59375 16.9375 L 36.4375 16.597656 C 36.351562 16.414062 36.167969 16.261719 36.03125 16.261719 C 35.664062 16.261719 32.84375 16.535156 32.316406 16.625 C 31.882812 16.695312 31.847656 16.660156 31.539062 15.9375 C 31.359375 15.519531 31.105469 15.015625 30.976562 14.820312 C 30.84375 14.621094 30.726562 14.359375 30.714844 14.242188 C 30.707031 14.121094 30.464844 13.523438 30.179688 12.910156 C 29.734375 11.945312 29.609375 11.792969 29.292969 11.792969 L 28.929688 11.792969 L 29.445312 12.980469 C 30.988281 16.539062 31.238281 17.140625 31.222656 17.234375 C 31.179688 17.515625 31.257812 17.597656 31.417969 17.441406 C 31.511719 17.347656 31.820312 17.269531 32.097656 17.269531 Z M 18.382812 17.128906 C 18.339844 17.058594 18.371094 16.984375 18.449219 16.957031 C 18.523438 16.929688 19.078125 15.773438 19.675781 14.386719 C 20.6875 12.039062 20.742188 11.859375 20.464844 11.816406 C 20.296875 11.789062 20.109375 11.820312 20.042969 11.890625 C 19.972656 11.957031 19.460938 13.050781 18.902344 14.316406 C 18.003906 16.351562 17.84375 16.617188 17.550781 16.605469 C 17.367188 16.597656 16.34375 16.503906 15.277344 16.402344 L 13.332031 16.214844 L 13.066406 16.5625 L 12.800781 16.90625 L 15.519531 17.128906 C 18.242188 17.355469 18.523438 17.351562 18.382812 17.125 Z M 15.8125 9.929688 C 15.851562 9.8125 15.75 9.765625 15.53125 9.796875 C 15.339844 9.824219 15.164062 9.957031 15.140625 10.097656 C 15.101562 10.304688 15.152344 10.328125 15.421875 10.226562 C 15.601562 10.160156 15.777344 10.027344 15.8125 9.929688 Z M 32.179688 9.378906 C 30.300781 6.144531 29.285156 4.566406 28.757812 4.039062 C 27.839844 3.128906 26.582031 2.566406 25.242188 2.464844 C 22.808594 2.28125 20.789062 3.363281 19.546875 5.523438 C 19.035156 6.402344 18.519531 7.277344 18.003906 8.152344 L 16.875 10.0625 L 32.578125 10.0625 Z M 13.769531 10.109375 C 13.867188 10.070312 14.03125 10.070312 14.132812 10.109375 C 14.230469 10.148438 14.148438 10.183594 13.949219 10.183594 C 13.75 10.183594 13.667969 10.148438 13.769531 10.109375 Z M 13.769531 10.109375 "/>
</g>
</svg>
